<?xml version="1.0" encoding="UTF-8"?><svg id="Layer_2" xmlns="http://www.w3.org/2000/svg" viewBox="0 0 262.6 89.5"><defs><style>.cls-1{fill:#bf6945;}.cls-2{fill:#fad652;}.cls-3{fill:#4d3d61;}.cls-4{fill:#a3d1d4;}.cls-5{fill:#b0ba80;}</style></defs><g id="Layer_1-2"><path class="cls-3" d="M126.8,37.6c0,.2,0,.5,0,.8,0,1.6-.9,2.6-2.5,2.6s-2.6-1-2.6-2.9V13.4c0-1.9.9-2.9,2.6-2.9s2.6,1,2.6,2.9v7.5c0,.7,0,1.3-.2,2,1.3-2.1,3.4-3.6,6.5-3.6,5,0,9.3,4.2,9.3,11s-3.9,10.9-9.2,10.9-5.5-1.6-6.6-3.6ZM137.4,30.3c0-4.1-2.2-6.9-5.4-6.9s-5.3,2.8-5.3,6.9,2.2,6.9,5.3,6.9,5.4-2.8,5.4-6.9Z"/><path class="cls-3" d="M143.6,33v-10.7c0-1.9.9-2.9,2.6-2.9s2.6,1.1,2.6,2.9v9.9c0,2.9,1.3,4.9,3.7,4.9s4.5-1.9,4.5-5v-9.8c0-1.9.9-2.9,2.6-2.9s2.6,1.1,2.6,2.9v15.8c0,1.9-.9,2.9-2.5,2.9s-2.4-1-2.4-2.6,0-.6,0-.8c-1.1,2-2.9,3.6-6.3,3.6s-7.4-2.8-7.4-8.2Z"/><path class="cls-3" d="M167.3,34.1v-10h-2.8c-1.5,0-2.4-.8-2.4-2.1s.9-2,2.4-2h2.8v-5c0-1.9.9-2.9,2.6-2.9s2.6,1.1,2.6,2.9v5h3.2c1.5,0,2.4.7,2.4,2s-.9,2.1-2.4,2.1h-3.2v9.6c0,1.8,1,3.1,2.4,3h.2c1.4,0,2.1.8,2.1,2s-.5,1.6-1.5,1.9c-.5.2-1.1.3-1.8.3-3.9,0-6.6-1.9-6.6-6.8Z"/><path class="cls-3" d="M182,34.1v-10h-2.8c-1.5,0-2.4-.8-2.4-2.1s.9-2,2.4-2h2.8v-5c0-1.9.9-2.9,2.6-2.9s2.6,1.1,2.6,2.9v5h3.2c1.5,0,2.4.7,2.4,2s-.9,2.1-2.4,2.1h-3.2v9.6c0,1.8,1,3.1,2.4,3h.2c1.4,0,2.1.8,2.1,2s-.5,1.6-1.5,1.9c-.5.2-1.1.3-1.8.3-3.9,0-6.6-1.9-6.6-6.8Z"/><path class="cls-3" d="M191.3,30.1c0-6.5,4.3-10.9,10.3-10.9s9.2,4.6,9.7,8.8c.3,2.9-.7,3.4-2.6,3.4h-12.1c0,3.2,2.1,5.7,5.2,5.7s3.4-1,4.1-2.4c.5-1.1,1.4-1.7,2.4-1.7,1.8,0,3.1,1.8,1.7,4.2-1.2,2-4.1,3.9-8.3,3.9-6.1,0-10.5-3.9-10.5-11ZM201.5,23.1c-2.8,0-4.7,2-5,4.7h9.7c0-2.8-1.9-4.7-4.7-4.7Z"/><path class="cls-3" d="M212.3,38.1v-15.8c0-1.9.9-2.9,2.6-2.9s2.6,1.1,2.6,2.9,0,.9-.2,1.3c1.1-2.3,2.9-4.2,5-4.2s1.3.2,1.7.5c.5.4.8,1,.8,1.8s-.3,1.4-.7,1.8c-.4.3-1,.5-1.7.6-2.6.1-5,1.6-5,6.1v7.8c0,1.9-.9,2.9-2.6,2.9s-2.6-1-2.6-2.9Z"/><path class="cls-3" d="M228.2,38.1v-14.1h-2.2c-1.5,0-2.4-.7-2.4-2s.9-2.1,2.4-2.1h2.2v-2.4c0-4.9,2.6-7.3,6.6-7.3s1.8.2,2.4.5c.6.4.9,1,.9,1.6s-.3,1.3-.8,1.7c-.4.3-.9.4-1.6.3-1.4,0-2.4.9-2.4,2.7v2.8h2.4c1.5,0,2.4.8,2.4,2.1s-.9,2-2.4,2h-2.4v14.1c0,1.9-.9,2.9-2.6,2.9s-2.6-1-2.6-2.9Z"/><path class="cls-3" d="M238.1,38.1V13.4c0-1.9.9-2.9,2.6-2.9s2.6,1,2.6,2.9v24.7c0,1.9-.9,2.9-2.6,2.9s-2.6-1-2.6-2.9Z"/><path class="cls-3" d="M248.4,45.8l2.1-5.5-6.7-17c-1.1-2.8.9-3.9,2.4-3.9s2.1.7,2.5,2.1l3.9,11.7c.3.7.5,1.5.6,2.4.2-1,.5-1.7.7-2.4l3.7-11.8c.4-1.3,1.3-2.1,2.3-2.1s3.4.9,2.4,3.7l-9.1,24.4c-.5,1.4-1.4,2.1-2.4,2.1s-3.5-.9-2.4-3.8Z"/><path class="cls-3" d="M120.7,68.9c0-6.5,4.3-10.9,10.3-10.9s9.2,4.6,9.7,8.8c.3,2.9-.7,3.4-2.6,3.4h-12.1c0,3.2,2.1,5.7,5.2,5.7s3.4-1,4.1-2.4c.5-1.1,1.4-1.7,2.4-1.7,1.8,0,3.1,1.8,1.7,4.2-1.2,2-4.1,3.9-8.3,3.9-6.1,0-10.5-3.9-10.5-11ZM131,61.9c-2.8,0-4.7,2-5,4.7h9.7c0-2.8-1.9-4.7-4.7-4.7Z"/><path class="cls-3" d="M143.9,76.9v-14.1h-2.2c-1.5,0-2.4-.7-2.4-2s.9-2.1,2.4-2.1h2.2v-2.4c0-4.9,2.6-7.3,6.6-7.3s1.8.2,2.4.5c.6.4.9,1,.9,1.6s-.3,1.3-.8,1.7c-.4.3-.9.4-1.6.3-1.4,0-2.4.9-2.4,2.7v2.8h8.7v-2.4c0-4.9,2.6-7.3,6.6-7.3s1.8.2,2.4.5c.6.4.9,1,.9,1.6s-.3,1.3-.8,1.7c-.4.3-.9.4-1.6.3-1.4,0-2.4.9-2.4,2.7v2.8h2.4c1.5,0,2.4.8,2.4,2.1s-.9,2-2.4,2h-2.4v14.1c0,1.9-.9,2.9-2.6,2.9s-2.6-1-2.6-2.9v-14.1h-8.7v14.1c0,1.9-.9,2.9-2.6,2.9s-2.6-1-2.6-2.9Z"/><path class="cls-3" d="M166,68.9c0-6.5,4.3-10.9,10.3-10.9s9.2,4.6,9.7,8.8c.3,2.9-.7,3.4-2.6,3.4h-12.1c0,3.2,2.1,5.7,5.2,5.7s3.4-1,4.1-2.4c.5-1.1,1.4-1.7,2.4-1.7,1.8,0,3.1,1.8,1.7,4.2-1.2,2-4.1,3.9-8.3,3.9-6.1,0-10.5-3.9-10.5-11ZM176.3,61.9c-2.8,0-4.7,2-5,4.7h9.7c0-2.8-1.9-4.7-4.7-4.7Z"/><path class="cls-3" d="M186.1,69c0-6.8,4.7-10.9,10.6-10.9s7.5,2.4,8.6,4.6c1.3,2.6,0,4.5-1.8,4.5s-2.1-.7-2.6-2.1c-.5-1.7-1.8-2.9-4.2-2.9s-5.4,2.4-5.4,6.9,2.1,6.9,5.3,6.9,3.9-1.5,4.5-3.2c.5-1.4,1.4-2.1,2.5-2.1,1.8,0,3,1.6,1.9,4.2-1.1,2.6-4,5-9.1,5s-10.4-4.2-10.4-11Z"/><path class="cls-3" d="M210.1,72.8v-10h-2.8c-1.5,0-2.4-.8-2.4-2.1s.9-2,2.4-2h2.8v-5c0-1.9.9-2.9,2.6-2.9s2.6,1.1,2.6,2.9v5h3.2c1.5,0,2.4.7,2.4,2s-.9,2.1-2.4,2.1h-3.2v9.6c0,1.8,1,3.1,2.4,3h.2c1.4,0,2.1.8,2.1,2s-.5,1.6-1.5,1.9c-.5.2-1.1.3-1.8.3-3.9,0-6.6-1.9-6.6-6.8Z"/><path class="cls-3" d="M220.4,75.7c-1.2-2.3.3-4,1.8-4s2.1.6,2.6,2c.6,1.6,1.9,2.5,4.1,2.5s3.7-1.1,3.7-2.6-1.1-2-3.3-2.4l-2.5-.5c-4.3-.9-6.8-2.9-6.8-6.3s3.4-6.3,8.4-6.3,6.7,1.4,8,3.7c1.3,2.3-.3,4-1.8,4s-2.1-.6-2.6-1.8c-.6-1.3-1.8-2-3.6-2s-3.4.8-3.4,2.2.8,1.8,3.4,2.4l2.5.5c4,.8,6.6,2.6,6.6,6.3s-3.4,6.8-8.7,6.8-7.4-1.7-8.7-4.3Z"/><path class="cls-4" d="M72.2,5.9c0,0,0-.2,0-.2.9-.2,2,.2,2.9.4.7.1,1.5.5,2.1.7.4.2.7.4,1.1.6.4.2.7.4,1.2.6.2.1.5,0,.7.2.1,0,0,.2.2.3.4.2.9.4,1.3.3.2.4,1,.7,1.4.9.1,0,.3,0,.4,0,.2,0,.3,0,.3.3,0,0,.2.4.3.5.1.1.7.4.9.5.3.2.4.3.7.5.5.4.8,1.1,1.4,1.5.5.4.6.6,1.1,1,.4.5,1.1.8,1.5,1.4.6,1,1.1,2,1.8,2.8.7.7.9,1.7,1.4,2.4.2.3.5.5.7.8.2.4.3.9.6,1.2.3.4.8.9,1.2,1.4.1.1.5.9.6,1,.2.1.5,0,.6.2.1,0,.6.5.7.7.2.5.4,1.1.6,1.6.2.5,0,1.1.2,1.7.1.5.5.9.5,1.5.1,1,.7,2,1.1,2.9.3.8,1.2,1.5,1.5,2.3.3,1,0,2.6,0,3.6v8.4c0,1.5,0,2.8-.3,4.2-.3,1.2-.5,2.5-.9,3.8-.2.8-.4,1.6-.6,2.3-.2.5-.5.7-.8,1.2-.1.2,0,.4-.1.6-.2.3-.4.6-.6.9-.2.4-.4.8-.6,1.2-.6.8-1.3,1.4-1.7,2.3-.2.5-1,1.9-.8,2.5,0,0,.1,0,.1-.1-.2.1-.5.3-.7.5-.1.1,0,.4-.1.6,0,0-.3.2-.3.2-.3.6-.5,1.1-.8,1.7-.3.5-.5.9-.8,1.4-.2.4-.1.5-.4.8-.3.4-.6.5-.9.8-1.9,1.8-3.3,3.9-5.4,5.4-1,.7-1.8,1.5-2.6,2.2-.4.3-.9.6-1.4.9-.6.4-1.2.8-1.9,1.2-.5.3-.9.6-1.3.9-.2.1-.4.2-.6.3-.1,0-.3,0-.4,0,0,0,0,.4-.1.4-.6.3-1.4.5-2.1.7-.7.2-1.3.5-2,.7-.6.2-1.2,0-1.8.1-.8,0-1.4.5-2.2.6-1.2.2-2.1.5-3.3.7-.8.1-1.6.2-2.4.4-.7.2-1.3.2-2,.4-.3,0-.4.2-.8.2-.3,0-.6,0-.9,0h-2c-.8,0-1.5,0-2.3,0-.7,0-1.1-.2-1.7-.3-.6,0-1.4.1-2,0-.6-.1-.9-.4-1.4-.6-.6-.2-1.2-.1-1.8-.4-.6-.2-1.2-.4-1.8-.7-1.3-.4-2.5-.9-3.7-1.5-.5-.2-.9-.3-1.5-.5-.6-.2-.9-.6-1.5-.8-.5-.2-.9-.3-1.5-.7-.4-.2-.7-.5-1.1-.8-.8-.5-1.6-.8-2.4-1.5-.7-.6-2-2.2-3.1-2,0-.6-1-.9-1.4-1.1-.5-.3-.8-.4-1.1-.9-.6-.8-1.1-1.4-1.8-2,0,0-.5-.5-.5-.5-.2-.2-.3-.4-.4-.6-.4-.6-.9-1.2-1.4-1.8-.3-.4-1.6-2.2-1.5-2.6-.4-.2-.5-.8-.8-1.1-.2-.2-.7-.5-.9-.8-.2-.3-.2-.6-.5-.9-.4-.5-.9-.8,0-1.1.6-.2,1.3,0,1.8.1.7.1,1,.4,1.6.6.3.1.5,0,.8.2.1,0,0,.2.2.2.1,0,.4,0,.5,0,.7.3,1.1.5,1.9.6.6,0,1.3,0,1.9,0,1.2,0,2.5,0,3.7,0,.2,0,.6,0,.8-.1.3,0,.5-.3.7-.4.3,0,.5,0,.8,0,.4,0,.7-.2,1.1-.2.6,0,1.1,0,1.7-.3.5-.2.9-.4,1.5-.5.5-.1,1.1-.4,1.6-.6.4-.1,1,0,1.5-.2.3-.1.6-.4.9-.5.3-.1.7-.2,1-.3.4-.2.7-.4,1.1-.6.8-.5,1.8-.8,2.6-1.3.9-.5,1.9-1.1,2.7-1.6.7-.5,1.2-1.3,2-1.7.5-.3.9-.5,1.3-.8.3-.3.7-.7,1-1.1.8-.9,1.8-2,2.4-2.9.2-.4.6-1,1-1.3.5-.5.6-.9,1-1.5.3-.5.9-.9,1.3-1.5.2-.3.1-.6.3-.9,0,0,.4,0,.4,0,0-.1,0-.3,0-.4.1-.2,0-.5,0-.7,0-.2.4-.4.5-.5.3-.4.3-.8.3-1.3,0-1,0-.9.9-1.2.4-.1,1-.4,1.3-.5,1.1-.5,2.1-1.1,3.2-1.8.5-.3,1-.6,1.5-.9.4-.3,1-.6,1.6-.6,0-.6,1.2-1.4,1.6-1.8.3-.2.5-.6.7-.9.3-.3.4-.7.7-.9.2-.2.6-.3.7-.7.1-.3,0-.6,0-.8.1-.4.5-.6.6-.9.1-.3.2-.6.4-1,.6-1.1,1.2-2.4,1.6-3.5.2-.5.3-1,.3-1.5,0-.7.3-1.2.3-1.9,0-2.6-.1-5.1-.4-7.6-.1-1.2-.7-2.2-1.2-3.3-.5-1.1-.9-2.3-1.5-3.2,0,0-.1-.4-.2-.5,0,0-.3,0-.4-.2-.1-.2-.2-.4-.3-.6-.4-.6-.7-1.3-1.1-1.9-.3-.5-.4-1-.7-1.4-.3-.4-.7-.9-.9-1.4"/><path class="cls-1" d="M48,4.4c1.6,0,2.9-.4,4.5-.6.6,0,.9-.3,1.4-.5.6-.2,1.2,0,1.8,0,.5,0,.8-.3,1.4-.3.6,0,1.2,0,1.8,0,1.3,0,2.6,0,3.9,0,2.1,0,3.6,1.5,5.3,2.6.5.3.7.8,1.1,1.1.2,0,.5,0,.6.1.2.2.3.3.5.5.3.2.7.5,1.1.7.5.4,1,.6,1.4,1,.9.6,1.4,1.7,2.1,2.4.6.6,1,1.4,1.5,2,0-.1.2.5.2.5.1.2.4.5.5.7.1.2,0,.5.2.7.2.3.4.2.5.5.1.3-.1.7,0,1,0,.2.2.3.3.5.2.5.4.9.4,1.5.2,1.9.4,3.6.4,5.6v2.9c0,1.2-.2,2.1-.4,3.2-.1.5-.3.8-.5,1.2-.1.3,0,.6-.2.9-.1.4-.4.5-.5.9-.5,1.1-.9,2.1-1.3,3.1-.2.5-.4.7-.8,1.1-.4.5-.6,1.1-.9,1.6-.6.9-1.1,1.6-1.9,2.1-.8.5-1.4.8-2.4,1.2-.2,0-.7.1-.9.2-.2.1-.5.4-.7.5-.5.2-1,.2-1.5.4-.7.3-1.8.8-2.7.6-1.6-.3,0-2,.5-2.7.1-.1.2-.4.3-.6.1-.2.3-.3.4-.5.2-.4.2-.8.3-1.2.4-1.2.7-2.3.8-3.5.3-1.9.2-4.5-.5-6.1-.3-.7-.7-1.5-.9-2.3,0-.2-.2-.8-.3-.9,0-.2-.3-.4-.4-.5-.1-.5-.1-1-.3-1.5,0-.2-.4,0-.5-.3,0-.2,0-.4,0-.6-.3-.6-.4-.7-.6-1.3-.3-.9-1-1.8-1.5-2.7-.4-.8-1-1.4-1.5-2-.5-.7-1.1-1.6-1.6-2.3-.2-.3-.4-.6-.6-.9-.3-.4-.6-.9-.9-1.2-.3-.4-.6-.7-.9-1-.3-.3-.8-.6-1.1-.8-1.2-1-2.5-2-3.7-3-.6-.5-1.3-1-1.9-1.5-.7-.5-.8-1.2-1.5-1.9"/><path class="cls-2" d="M42.3,5.2c-.9,0-1.7,0-2.6.2-.8,0-1,.3-1.7.8-.7.5-2.2,1.1-2.4,1.9-.2,0-.3,0-.5,0,0,.5-.3.6-.7.8-.5.3-.7.5-1,.8-1,.7-1.9,1.3-2.8,2.2-.7.7-1.1,1.4-1.6,2.1-.2.3-.7.4-1,.7-.4.3-.7.7-1,1-.7.6-1.6,1.3-2.2,2-.1.1-.1.5-.2.7,0,0-.4.4-.5.5-.2.3-.4.7-.6,1-1.3,1.5-2.2,3.5-3.1,5.4-.5,1-.8,2-1.3,3-.4.7-.8,1.5-1.1,2.3,0,.3-.3.3-.4.6,0,.2,0,.4,0,.6-.1.5-.4,1-.6,1.5-.4,1.2-.6,2.3-.8,3.5-.4,2,0,4.1-.2,6.1,0,.9-.5,1.5-.4,2.5,0,.8,0,1.5,0,2.3,0,1.3,0,2.5,0,3.8,0,0,0-.1,0-.2.5,0,.8,1.8.9,2.4.1.5,0,.7.3,1.2.1.3.2.5.3.8,0,.2,0,.5,0,.7,0,.2.2.2.4.3.2.5.2.9.3,1.4.1.3.4.8.5,1.2.3.8.6,1.7,1.1,2.4.5.9,1.1,1.4,1.9,2.1.7.6,1.6,1.2,2.5,1.5.9.3,1.6.4,2.7.4,1.2,0,2.2.3,3.5.3h6.6c1,0,2.2.2,3.1,0,.4,0,.9-.4,1.3-.5.4-.1.8-.2,1.2-.4.3-.1.6-.5,1-.5.4,0,.8-.1,1.2-.3.5-.2.9-.4,1.4-.5.2,0,.5,0,.6-.1.2-.1.4-.5.6-.5.4-.1.8-.2,1.2-.3.5-.2.9-.3,1.4-.4,1-.3,2-1,2.8-1.6.5-.5,1.1-.9,1.6-1.4.2-.3.4-.5.7-.7.1-.1.6-.4.8-.6,1-1.1,1.9-2.4,2.8-3.7.8-1.3,1.7-2.8,2.6-4,.5-.7.8-1.3,1.1-2.1.2-.6.4-2.6,1-2.7.2-.8-1.2-.6-1.6-.5,0,.4,0,.7,0,1.1,0-.6.1-.7.5-.9.2-.1.6-.1.7-.2.5-.3.1,0,.4-.5.5-.7.7-1.8,1-2.6,0-.2,0-.4,0-.7,0-.1.3-.4.4-.6,0-.2,0-.4,0-.6.1-.3.4-.5.5-.9.1-.3,0-.6,0-.9,0-.2.2-.5.2-.7.1-.5,0-1.1,0-1.6,0-.5.3-.8.3-1.4,0-.5,0-1,0-1.5v-3.9c0-1.2-.1-2.1-.6-3.2-.2-.4-.5-.8-.6-1.2-.1-.5,0-1.1-.6-1.2.1-.5-.2-.4-.4-.6-.1-.3-.2-.7-.5-.8.2-.7-.7-1.4-.9-1.9-.2-.5-.5-1.1-.9-1.7-.4-.7-.9-1.3-1.2-2-.4-.8-.9-1.5-1.3-2.3-.2-.5-.4-1.1-.7-1.6-.3-.6.2-.4-.5-.7-.3-.1-.6-.1-.9-.3-.6-.3-1-.6-1.5-.9-.7-.4-1.6-.5-2.3-.7,0-.1,0-.2.1-.2-.3-.8-1.5-1.1-2.1-1.8-.4-.4-1.9-2.1-2.5-2,0-.1-.2-.5-.3-.6-.2,0-.3,0-.5,0-.1-.2-.2-.3-.4-.5-.6-.3-1.3-.6-2-.7-.8,0-1.4,0-2.1.3-.6.4-.8,1.2-1.5,1.5"/><path class="cls-1" d="M41.5,5.3c-2.1,0-3.7.9-5.6,1.7-1,.4-1.7,1.5-2.4,2.2-.6.6-.8,1.4-1.5,1.9-.2.2-.7.4-1,.6-.1,0-.3,0-.5,0-.2.1-.4.5-.5.6-.3.3-.6.5-.9.8-.3.4-.8.7-1.1,1-.7,1-1.4,2.3-2.3,3.2-.3.3-.8.6-1.1,1-.3.4-.5.9-.8,1.3-.5.7-1.2,1.5-1.7,2.3-1.4,2.1-2.6,4.3-3.6,6.6-.4.9-1,2-1.1,3,0,.3,0,.6,0,.9,0,.4-.4.6-.5.8-.2.5,0,1.1,0,1.7-.1.6-.4,1.3-.5,1.9,0,.6,0,1.2,0,1.8-.2,1.3-.4,2.6-.4,4,0,3.3,0,6.6.1,9.9,0,.6.2,1.2.3,1.8.1.8,0,1.5,0,2.3,0,.6.4,1.1.5,1.7.1.5,0,1,.2,1.5,0,.3.7,1,.3,1.5-.2.2-1.4,0-1.7,0-1-.2-2-1.2-2.7-1.8-1.4-1-2.9-2.5-3.9-4-.9-1.4-1.9-2.8-2.8-4.2-.5-.9-1.1-1.8-1.5-2.8-.3-.8-1-1.7-1.2-2.6,0-.5,0-.9-.2-1.3-.2-.5-.4-1.1-.5-1.7-.3-1.2-.6-2.4-.7-3.5-.1-1,0-2-.3-2.9-.1-.5-.3-.7-.3-1.2,0-.6,0-1.1,0-1.7,0-1.9-.2-4,0-5.8,0-.4.4-1,.5-1.5,0-.4,0-.8,0-1.2,0-.5.4-.8.5-1.2.2-.6,0-1.2.3-1.7.2-.6.6-1.1.8-1.8.4-1,1-2.1,1.6-2.8.4-.4.8-.8,1.1-1.2.5-.6,1.4-1.2,1.5-2.1.5,0,1.1-.9,1.5-1.2.6-.5,1.2-.9,1.8-1.4.3-.2.8-.4,1-.7,0-.1,0-.3.1-.5.2-.2.4,0,.7-.1.7-.6,1.4-1.1,2.2-1.6.6-.4,1.3-.9,1.9-1.2.6-.3,1.2-.6,1.8-1,1.5-.8,2.8-1.5,4.3-2.2.6-.3.9-.6,1.7-.6.4,0,.9,0,1.3,0,.6,0,.7-.3,1.1-.5.9-.3,2.1-.2,3.1-.4,1-.1,1.8-.5,2.7-.6,1.8-.2,3.5-.2,5.2.4,1.6.5,2.3,1.5,2.7,3.1,0,0,.2,0,.2,0"/><path class="cls-5" d="M45.9,5.6c.9,0,2-.2,2.8,0,1,.2,1.5.9,2.3,1.4,1.2.8,2.3,1.3,3.3,2.4.8.8,1.5,1.9,2.3,2.7.4.4.9.5,1.3,1,.5.6.8,1.3,1.2,1.7.9,1.2,1.4,2.4,2.1,3.7.3.6.9,1.2,1.1,1.8.3.9.3,1.4.7,2.3.6,1.3.8,2.4,1.4,3.7.7,1.3.7,3.2.8,4.7.4,3.1,0,6.8-.4,9.9-.2,1.3-.3,2.3-1.5,3.2-1.2.8-2.9.5-4.4.5-3,0-6.6.4-9.3-.8-.6-.3-1.4-.4-1.9-.6-.3-.1-.5-.4-.8-.6-.3-.2-.7,0-1-.2-.6-.4-1-1-1.5-1.4-.6-.5-1.1-.6-1.7-1.2-.4-.4-.9-.9-1.2-1.3-.2-.2-.4-.6-.6-.8-.2-.3-.6-.2-.8-.5-.1-.2-.3-.8-.4-1-.2-.3-.5-.7-.7-1-.5-.8-.9-1.5-1.1-2.3-.8-3.2-.7-6.8-.7-10.2,0-.9,0-1.6.3-2.5.1-.5.4-.8.5-1.4,0-.5-.2-1,0-1.5.1-.5.6-.6.8-1.1,0-.2.2-.9.2-1.2.3-.9.7-1.4,1.1-2.2.4-.8.4-1.2,1.1-1.9.5-.5.7-.9,1.1-1.5.2-.3.5-.8.7-1,.2-.2.6-.2.7-.4.4-.4.8-.7.9-1.3.8-.1,1.1-.9,1.8-1.2"/><path class="cls-3" d="M58.2,4.5c-10.7,0-19.4,8.7-19.4,19.4s8.7,19.4,19.4,19.4,19.4-8.7,19.4-19.4-8.7-19.4-19.4-19.4M58.2,47.1c-12.8,0-23.2-10.4-23.2-23.2S45.4.7,58.2.7s23.2,10.4,23.2,23.2-10.4,23.2-23.2,23.2"/><path class="cls-3" d="M33.8,4.3C17.2,4.3,3.8,17.8,3.8,34.3s13.5,30.1,30.1,30.1,30.1-13.5,30.1-30.1S50.4,4.3,33.8,4.3M33.8,68.1C15.2,68.1,0,53,0,34.3S15.2.5,33.8.5s33.8,15.2,33.8,33.8-15.2,33.8-33.8,33.8"/><path class="cls-3" d="M58.2,3.8c-22.6,0-41,18.4-41,41s18.4,41,41,41,41-18.4,41-41S80.8,3.8,58.2,3.8M58.2,89.5c-24.7,0-44.8-20.1-44.8-44.8S33.5,0,58.2,0s44.8,20.1,44.8,44.8-20.1,44.8-44.8,44.8"/></g></svg>