<?xml version="1.0" encoding="UTF-8"?><svg id="Layer_2" xmlns="http://www.w3.org/2000/svg" xmlns:xlink="http://www.w3.org/1999/xlink" viewBox="0 0 623.5 789.7"><defs><style>.cls-1,.cls-2,.cls-3,.cls-4,.cls-5,.cls-6,.cls-7,.cls-8,.cls-9,.cls-10,.cls-11,.cls-12,.cls-13,.cls-14,.cls-15,.cls-16,.cls-17,.cls-18,.cls-19,.cls-20,.cls-21,.cls-22,.cls-23,.cls-24,.cls-25,.cls-26,.cls-27,.cls-28,.cls-29,.cls-30,.cls-31{fill:none;}.cls-2,.cls-3,.cls-4,.cls-5,.cls-6,.cls-8,.cls-11,.cls-12,.cls-13,.cls-14,.cls-15,.cls-18,.cls-19,.cls-20,.cls-21,.cls-22,.cls-23,.cls-24,.cls-25,.cls-27,.cls-28,.cls-29,.cls-30,.cls-31{stroke:#4c3c61;}.cls-2,.cls-15{stroke-width:1.7px;}.cls-3{stroke-width:1.7px;}.cls-4,.cls-11{stroke-width:1px;}.cls-32{fill:#fbfaf8;}.cls-33{fill:#504065;}.cls-34{fill:#cd1719;}.cls-5,.cls-18{stroke-width:2.1px;}.cls-6,.cls-8,.cls-20{stroke-width:2.1px;}.cls-7{stroke:#a3d1d4;}.cls-7,.cls-16,.cls-26{stroke-miterlimit:1.3;stroke-width:3.6px;}.cls-35{fill:#b0b980;}.cls-8,.cls-11,.cls-12,.cls-13,.cls-14,.cls-15,.cls-18,.cls-19,.cls-20,.cls-21,.cls-22,.cls-23,.cls-24,.cls-25,.cls-27,.cls-28,.cls-29,.cls-30,.cls-31{stroke-linejoin:round;}.cls-36{font-size:9.7px;}.cls-36,.cls-37,.cls-38,.cls-39,.cls-40,.cls-41,.cls-42,.cls-43,.cls-44,.cls-45,.cls-46,.cls-47,.cls-48,.cls-49,.cls-50,.cls-51,.cls-52,.cls-53,.cls-54,.cls-55,.cls-56,.cls-57,.cls-58,.cls-59,.cls-60,.cls-61,.cls-62,.cls-63,.cls-64,.cls-65,.cls-66,.cls-67,.cls-68,.cls-69,.cls-70,.cls-71,.cls-72,.cls-73,.cls-74,.cls-75,.cls-76,.cls-77,.cls-78,.cls-79,.cls-80,.cls-81,.cls-82,.cls-83,.cls-84,.cls-85,.cls-86,.cls-87,.cls-88,.cls-89,.cls-90,.cls-91,.cls-92,.cls-93,.cls-94,.cls-95,.cls-96,.cls-97,.cls-98,.cls-99,.cls-100,.cls-101,.cls-102,.cls-103,.cls-104,.cls-105,.cls-106,.cls-107,.cls-108,.cls-109,.cls-110,.cls-111,.cls-112,.cls-113,.cls-114,.cls-115{font-family:ABCDiatypeRoundedUnlicensedTrial-Bold, 'ABC Diatype Rounded Unlicensed Trial';font-weight:700;}.cls-36,.cls-37,.cls-38,.cls-39,.cls-40,.cls-41,.cls-42,.cls-43,.cls-44,.cls-45,.cls-46,.cls-47,.cls-48,.cls-49,.cls-50,.cls-51,.cls-52,.cls-53,.cls-54,.cls-55,.cls-56,.cls-57,.cls-58,.cls-59,.cls-60,.cls-61,.cls-62,.cls-63,.cls-64,.cls-65,.cls-66,.cls-67,.cls-68,.cls-69,.cls-70,.cls-71,.cls-72,.cls-73,.cls-74,.cls-75,.cls-76,.cls-77,.cls-78,.cls-79,.cls-80,.cls-81,.cls-82,.cls-83,.cls-84,.cls-85,.cls-86,.cls-87,.cls-88,.cls-89,.cls-90,.cls-91,.cls-92,.cls-93,.cls-94,.cls-95,.cls-96,.cls-97,.cls-98,.cls-99,.cls-100,.cls-101,.cls-102,.cls-103,.cls-104,.cls-105,.cls-106,.cls-107,.cls-108,.cls-109,.cls-110,.cls-111,.cls-112,.cls-113,.cls-114,.cls-115,.cls-116{fill:#4c3c61;}.cls-37{font-size:9.7px;}.cls-38{font-size:9.7px;}.cls-39{font-size:9.7px;}.cls-40{font-size:9.7px;}.cls-41{font-size:9.7px;}.cls-42{font-size:9.7px;}.cls-43{font-size:9.7px;}.cls-44{font-size:9.7px;}.cls-45{font-size:9.7px;}.cls-46{font-size:9.7px;}.cls-47{font-size:9.7px;}.cls-48{font-size:9.7px;}.cls-49{font-size:9.7px;}.cls-50{font-size:9.7px;}.cls-51{font-size:9.7px;}.cls-52{font-size:9.7px;}.cls-53{font-size:9.7px;}.cls-54{font-size:9.7px;}.cls-55{font-size:9.7px;}.cls-56{font-size:9.7px;}.cls-57{font-size:9.7px;}.cls-58{font-size:9.7px;}.cls-59{font-size:9.7px;}.cls-60{font-size:9.7px;}.cls-61{font-size:9.7px;}.cls-62{font-size:9.7px;}.cls-63{font-size:9.7px;}.cls-64{font-size:9.7px;}.cls-65{font-size:9.7px;}.cls-66{font-size:9.7px;}.cls-67{font-size:9.7px;}.cls-68{font-size:9.7px;}.cls-69{font-size:9.7px;}.cls-70{font-size:9.7px;}.cls-71{font-size:9.7px;}.cls-72{font-size:9.7px;}.cls-73{font-size:9.7px;}.cls-74{font-size:9.7px;}.cls-75{font-size:9.7px;}.cls-76{font-size:9.7px;}.cls-77{font-size:9.7px;}.cls-78{font-size:9.7px;}.cls-79{font-size:9.7px;}.cls-80{font-size:9.7px;}.cls-81{font-size:9.7px;}.cls-82{font-size:9.7px;}.cls-83{font-size:9.7px;}.cls-84{font-size:9.7px;}.cls-85{font-size:9.7px;}.cls-86{font-size:9.7px;}.cls-87{font-size:9.7px;}.cls-88{font-size:9.7px;}.cls-89{font-size:9.7px;}.cls-90{font-size:9.7px;}.cls-91{font-size:9.7px;}.cls-92{font-size:9.7px;}.cls-93{font-size:9.7px;}.cls-94{font-size:9.7px;}.cls-95{font-size:9.7px;}.cls-96{font-size:9.7px;}.cls-97{font-size:9.7px;}.cls-98{font-size:9.7px;}.cls-99{font-size:9.7px;}.cls-100{font-size:9.7px;}.cls-101{font-size:9.7px;}.cls-102{font-size:9.7px;}.cls-103{font-size:9.7px;}.cls-104{font-size:9.7px;}.cls-105{font-size:9.7px;}.cls-106{font-size:9.7px;}.cls-107{font-size:9.7px;}.cls-108{font-size:9.7px;}.cls-109{font-size:9.7px;}.cls-110{font-size:9.7px;}.cls-111{font-size:9.7px;}.cls-112{font-size:9.7px;}.cls-113{font-size:9.7px;}.cls-114{font-size:9.7px;}.cls-115{font-size:9.7px;}.cls-117{fill:#f9d752;}.cls-9{stroke:#fff;stroke-width:5.4px;}.cls-118{clip-path:url(#clippath-10);}.cls-119{fill:#f3d769;}.cls-120{clip-path:url(#clippath-1);}.cls-121{clip-path:url(#clippath-3);}.cls-122{clip-path:url(#clippath-4);}.cls-123{clip-path:url(#clippath-2);}.cls-124{clip-path:url(#clippath-7);}.cls-125{clip-path:url(#clippath-6);}.cls-126{clip-path:url(#clippath-9);}.cls-127{clip-path:url(#clippath-8);}.cls-128{clip-path:url(#clippath-5);}.cls-10{stroke-width:2.9px;}.cls-10,.cls-17{stroke:#fbfaf8;}.cls-129{fill:#c46539;}.cls-130{fill:#fff;}.cls-11,.cls-12,.cls-13,.cls-14,.cls-15,.cls-18,.cls-19,.cls-20,.cls-21,.cls-22,.cls-23,.cls-24,.cls-25,.cls-27,.cls-28,.cls-29,.cls-30,.cls-31{stroke-linecap:round;}.cls-12{stroke-width:1.1px;}.cls-13{stroke-width:1.1px;}.cls-14{stroke-width:1.7px;}.cls-16{stroke:#f9d752;}.cls-131{fill:#a3d1d4;}.cls-17,.cls-21{stroke-width:2.4px;}.cls-19{stroke-width:2.1px;}.cls-22{stroke-width:1.9px;}.cls-23{stroke-width:5.7px;}.cls-24{stroke-width:5.2px;}.cls-25{stroke-width:6.6px;}.cls-26{stroke:#b0b980;}.cls-132{clip-path:url(#clippath);}.cls-27{stroke-width:2.8px;}.cls-28{stroke-width:3.3px;}.cls-29{stroke-width:6.1px;}.cls-30{stroke-width:3.8px;}.cls-31{stroke-width:4.7px;}</style><clipPath id="clippath"><rect class="cls-1" width="623.5" height="789.7"/></clipPath><clipPath id="clippath-1"><rect class="cls-1" width="623.5" height="789.7"/></clipPath><clipPath id="clippath-2"><rect class="cls-1" width="623.5" height="789.7"/></clipPath><clipPath id="clippath-3"><rect class="cls-1" width="623.5" height="789.7"/></clipPath><clipPath id="clippath-4"><rect class="cls-1" width="623.5" height="789.7"/></clipPath><clipPath id="clippath-5"><rect class="cls-1" width="623.5" height="789.7"/></clipPath><clipPath id="clippath-6"><rect class="cls-1" width="623.5" height="789.7"/></clipPath><clipPath id="clippath-7"><rect class="cls-1" width="623.5" height="789.7"/></clipPath><clipPath id="clippath-8"><rect class="cls-1" width="623.5" height="789.7"/></clipPath><clipPath id="clippath-9"><rect class="cls-1" width="623.5" height="789.7"/></clipPath><clipPath id="clippath-10"><rect class="cls-1" width="623.5" height="789.7"/></clipPath></defs><g id="Layer_1-2"><g class="cls-132"><path class="cls-35" d="M311.8,164.4c35.1,0,63.5-28.4,63.5-63.5s-28.4-63.5-63.5-63.5-63.5,28.4-63.5,63.5,28.4,63.5,63.5,63.5"/><path class="cls-130" d="M273.3,629.3h77c14.9,0,27,12.1,27,27v77c0,14.9-12.1,27-27,27h-77c-14.9,0-27-12.1-27-27v-77c0-14.9,12.1-27,27-27Z"/><path class="cls-3" d="M273.3,629.3h77c14.9,0,27,12.1,27,27v77c0,14.9-12.1,27-27,27h-77c-14.9,0-27-12.1-27-27v-77c0-14.9,12.1-27,27-27Z"/><path class="cls-32" d="M61.2,86.4c0,1.1,0,2.2,0,3.3,0,.3,0,.7,0,1,.2.8,0,.3.6.7,1.5,1.3,3.2,1.3,5.2,1.3,1.3,0,1.8-.7,2.9-1.3,1.1-.5,2.3-1,3.4-1.7,1.9-1.3,3.5-3.6,5-5.4.9-1.1,2.8-2.5.6-3.3-1.8-.7-4.3-1.7-6.4-1.7-.7,0-2.4-.3-3,0-.5.2-.7.8-1.2,1-.3.2-.7.3-1,.4-.3.2-.6.5-.8.9-.8.6-1.8.8-2.6,1.4-.6.4-.6,1.9-1.3,2"/><path class="cls-32" d="M156.9,43.9c0,1.1,0,2.2,0,3.3,0,.3,0,.7,0,1,.2.8,0,.3.6.7,1.5,1.3,3.2,1.3,5.2,1.3,1.3,0,1.8-.7,2.9-1.3,1.1-.5,2.3-1,3.4-1.7,1.9-1.3,3.5-3.6,5-5.4.9-1.1,2.8-2.5.6-3.3-1.8-.7-4.3-1.7-6.4-1.7-.7,0-2.4-.3-3,0-.5.2-.7.8-1.2,1-.3.2-.7.3-1,.4-.3.2-.6.5-.8.9-.8.6-1.8.8-2.6,1.4-.6.4-.6,1.9-1.3,2"/><path class="cls-32" d="M262,317c0,1.3-.4,3.2.6,4.1,1,.9,2.9.6,4.1.6,2.9-.1,5.6-1,8.1-2.2.3-.2,1.7-.6,1.9-.8.2-.3.2-1.9,0-2.2-.7-1.2-2.7-1.4-4-1.4-1.6,0-9.7-2.9-9.4.9-.2,0-.4,0-.5.1v.3"/><path class="cls-131" d="M135.6,165.1c35.4,0,64.1-28.7,64.1-64.1s-28.7-64.1-64.1-64.1-64.1,28.7-64.1,64.1,28.7,64.1,64.1,64.1"/><path class="cls-119" d="M135.6,332.4c35.4,0,64.1-28.7,64.1-64.1s-28.7-64.1-64.1-64.1-64.1,28.7-64.1,64.1,28.7,64.1,64.1,64.1"/><path class="cls-117" d="M277.7,750.7c11.7,0,21.2-9.5,21.2-21.2s-9.5-21.2-21.2-21.2-21.2,9.5-21.2,21.2,9.5,21.2,21.2,21.2"/><path class="cls-131" d="M277.7,684c11.7,0,21.2-9.5,21.2-21.2s-9.5-21.2-21.2-21.2-21.2,9.5-21.2,21.2,9.5,21.2,21.2,21.2"/></g><line class="cls-12" x1="170.5" y1="444.2" x2="157" y2="444.2"/><polyline class="cls-12" points="160.2 439.9 155.9 444.2 160.2 448.4"/><line class="cls-12" x1="100.6" y1="444.2" x2="114.3" y2="444.2"/><polyline class="cls-12" points="110.9 448.4 115.2 444.2 110.9 439.9"/><line class="cls-12" x1="142.9" y1="440.3" x2="129" y2="440.3"/><polyline class="cls-12" points="132.5 444.6 128.3 440.3 132.5 436.1"/><line class="cls-12" x1="128.3" y1="448" x2="141.8" y2="448"/><polyline class="cls-12" points="138.6 443.7 142.9 448 138.6 452.3"/><g class="cls-120"><path class="cls-14" d="M164.6,157.1c20.3-10.5,34.2-31.8,34.2-56.2,0-34.9-28.3-63.3-63.3-63.3s-63.3,28.3-63.3,63.3,13.7,45.4,33.7,56"/><path class="cls-116" d="M135.6,29.7c1.4,0,2.6-1.2,2.6-2.6s-1.2-2.6-2.6-2.6-2.6,1.2-2.6,2.6,1.2,2.6,2.6,2.6"/><path class="cls-116" d="M185.3,158.9c1.4,0,2.6-1.2,2.6-2.6s-1.2-2.6-2.6-2.6-2.6,1.2-2.6,2.6,1.2,2.6,2.6,2.6"/><path class="cls-116" d="M85.8,158.9c1.4,0,2.6-1.2,2.6-2.6s-1.2-2.6-2.6-2.6-2.6,1.2-2.6,2.6,1.2,2.6,2.6,2.6"/><path class="cls-116" d="M83.6,51.4c1.4,0,2.6-1.2,2.6-2.6s-1.2-2.6-2.6-2.6-2.6,1.2-2.6,2.6,1.2,2.6,2.6,2.6"/><path class="cls-116" d="M187.5,51.4c1.4,0,2.6-1.2,2.6-2.6s-1.2-2.6-2.6-2.6-2.6,1.2-2.6,2.6,1.2,2.6,2.6,2.6"/><path class="cls-116" d="M62.2,103.6c1.4,0,2.6-1.2,2.6-2.6s-1.2-2.6-2.6-2.6-2.6,1.2-2.6,2.6,1.2,2.6,2.6,2.6"/><path class="cls-116" d="M210,103.6c1.4,0,2.6-1.2,2.6-2.6s-1.2-2.6-2.6-2.6-2.6,1.2-2.6,2.6,1.2,2.6,2.6,2.6"/><path class="cls-131" d="M135.6,743.9c-35.4,0-62-27.8-61.3-61.3.7-31.4,35.2-46.8,35.2-75.2s-8.1-21-8.1-39.9,11.7-31.5,34.2-31.5c21.9,0,34,17.5,34,31.5s-7.9,22.5-7.9,39.9c0,28.4,35,43.8,35,75.2s-25.7,61.3-61.1,61.3"/><path class="cls-3" d="M135.6,743.9c-35.4,0-62-27.8-61.3-61.3.7-31.4,35.2-46.8,35.2-75.2s-8.1-21-8.1-39.9,11.7-31.5,34.2-31.5c21.9,0,34,17.5,34,31.5s-7.9,22.5-7.9,39.9c0,28.4,35,43.8,35,75.2s-25.7,61.3-61.1,61.3Z"/></g><line class="cls-11" x1="135.5" y1="606.4" x2="129.9" y2="603.7"/><polyline class="cls-11" points="130.2 605.2 129.7 603.6 131.3 603.1"/><line class="cls-11" x1="135.6" y1="606.4" x2="139.7" y2="601.5"/><polyline class="cls-11" points="138.2 601.4 139.9 601.2 140 602.9"/><g class="cls-123"><circle class="cls-4" cx="135.6" cy="605.9" r="8.8" transform="translate(-135.6 47.4) rotate(-13.3)"/><path class="cls-27" d="M249.7,88.5c-.3,1.5-.6,3.1-.7,4.7-.4,3.2-.5,6.4-.5,9.6"/><path class="cls-15" d="M272,150.2c1.2.9,2.3,1.8,3.6,2.7"/><path class="cls-22" d="M262.7,140.9c1.7,2.1,3.5,4.1,5.5,5.9"/><path class="cls-19" d="M253.8,126.2c1.5,3.4,3.2,6.6,5.3,9.6"/><path class="cls-21" d="M248.9,108.5c.5,4.3,1.5,8.4,2.8,12.4"/><path class="cls-28" d="M259.6,65c-3.4,4.9-6.4,10.2-8.4,17.6"/><path class="cls-30" d="M277.3,47.8c-5.4,3.5-10.2,7.8-14.3,12.8"/><path class="cls-30" d="M304.1,38.1c-7.7.9-15.1,3.3-21.8,6.8"/><path class="cls-15" d="M279.8,155.3c1.3.6,2.2,1.1,3.6,1.7"/><path class="cls-14" d="M164.6,157.1c20.3-10.5,34.2-31.8,34.2-56.2,0-34.9-28.3-63.3-63.3-63.3s-63.3,28.3-63.3,63.3,13.7,45.4,33.7,56"/><path class="cls-14" d="M164.6,324.3c20.3-10.5,34.2-31.8,34.2-56.2,0-34.9-28.3-63.3-63.3-63.3s-63.3,28.3-63.3,63.3,13.7,45.4,33.7,56"/><path class="cls-16" d="M118.9,332.9v-4.5h-1.3c-.7,0-1.1-.3-1.1-.9s.4-.9,1.1-.9h1.3v-2.2c0-.8.4-1.3,1.2-1.3s1.2.5,1.2,1.3v2.2h1.4c.7,0,1.1.3,1.1.9s-.4.9-1.1.9h-1.4v4.3c0,.8.5,1.4,1.1,1.4h0c.6,0,.9.4.9.9s-.2.7-.7.9c-.2,0-.5.1-.8.1-1.8,0-3-.8-3-3Z"/><path class="cls-16" d="M124.9,324c0-.8.6-1.4,1.4-1.4s1.4.6,1.4,1.4-.6,1.4-1.4,1.4-1.4-.6-1.4-1.4ZM125.1,334.7v-7.1c0-.8.4-1.3,1.2-1.3s1.2.5,1.2,1.3v7.1c0,.8-.4,1.3-1.2,1.3s-1.2-.5-1.2-1.3Z"/><path class="cls-16" d="M129.7,334.7v-7.1c0-.9.4-1.3,1.1-1.3s1.1.5,1.1,1.2,0,.3,0,.4c.5-.8,1.3-1.6,2.7-1.6s2.1.9,2.4,1.7c.5-.9,1.6-1.7,3-1.7s3.2,1.5,3.2,3.7v4.7c0,.8-.4,1.3-1.2,1.3s-1.2-.5-1.2-1.3v-4.4c0-1.3-.5-2.2-1.5-2.2s-1.8.9-1.8,2.3v4.3c0,.8-.4,1.3-1.2,1.3s-1.2-.5-1.2-1.3v-4.4c0-1.3-.5-2.2-1.5-2.2s-1.7.9-1.7,2.3v4.3c0,.8-.4,1.3-1.2,1.3-.7,0-1.2-.5-1.2-1.3Z"/><path class="cls-16" d="M144.9,331.1c0-2.9,1.9-4.9,4.6-4.9s4.1,2.1,4.4,3.9c.2,1.3-.3,1.5-1.2,1.5h-5.4c0,1.5.9,2.6,2.3,2.6s1.5-.4,1.8-1.1c.2-.5.6-.8,1.1-.8.8,0,1.4.8.8,1.9-.5.9-1.8,1.8-3.7,1.8-2.8,0-4.7-1.8-4.7-5ZM149.5,328c-1.2,0-2.1.9-2.3,2.1h4.4c0-1.2-.8-2.1-2.1-2.1Z"/></g><path class="cls-116" d="M118.9,332.9v-4.5h-1.3c-.7,0-1.1-.3-1.1-.9s.4-.9,1.1-.9h1.3v-2.2c0-.8.4-1.3,1.2-1.3s1.2.5,1.2,1.3v2.2h1.4c.7,0,1.1.3,1.1.9s-.4.9-1.1.9h-1.4v4.3c0,.8.5,1.4,1.1,1.4h0c.6,0,.9.4.9.9s-.2.7-.7.9c-.2,0-.5.1-.8.1-1.8,0-3-.8-3-3Z"/><path class="cls-116" d="M124.9,324c0-.8.6-1.4,1.4-1.4s1.4.6,1.4,1.4-.6,1.4-1.4,1.4-1.4-.6-1.4-1.4ZM125.1,334.7v-7.1c0-.8.4-1.3,1.2-1.3s1.2.5,1.2,1.3v7.1c0,.8-.4,1.3-1.2,1.3s-1.2-.5-1.2-1.3Z"/><path class="cls-116" d="M129.7,334.7v-7.1c0-.9.4-1.3,1.1-1.3s1.1.5,1.1,1.2,0,.3,0,.4c.5-.8,1.3-1.6,2.7-1.6s2.1.9,2.4,1.7c.5-.9,1.6-1.7,3-1.7s3.2,1.5,3.2,3.7v4.7c0,.8-.4,1.3-1.2,1.3s-1.2-.5-1.2-1.3v-4.4c0-1.3-.5-2.2-1.5-2.2s-1.8.9-1.8,2.3v4.3c0,.8-.4,1.3-1.2,1.3s-1.2-.5-1.2-1.3v-4.4c0-1.3-.5-2.2-1.5-2.2s-1.7.9-1.7,2.3v4.3c0,.8-.4,1.3-1.2,1.3-.7,0-1.2-.5-1.2-1.3Z"/><path class="cls-116" d="M144.9,331.1c0-2.9,1.9-4.9,4.6-4.9s4.1,2.1,4.4,3.9c.2,1.3-.3,1.5-1.2,1.5h-5.4c0,1.5.9,2.6,2.3,2.6s1.5-.4,1.8-1.1c.2-.5.6-.8,1.1-.8.8,0,1.4.8.8,1.9-.5.9-1.8,1.8-3.7,1.8-2.8,0-4.7-1.8-4.7-5ZM149.5,328c-1.2,0-2.1.9-2.3,2.1h4.4c0-1.2-.8-2.1-2.1-2.1Z"/><g class="cls-121"><path class="cls-7" d="M119.7,168.1v-7.1c0-.8.4-1.3,1.2-1.3s1.2.5,1.2,1.3,0,.4,0,.6c.5-1,1.3-1.9,2.2-1.9s.6,0,.8.2c.2.2.4.5.4.8s-.1.6-.3.8c-.2.2-.4.2-.8.3-1.2,0-2.2.7-2.2,2.7v3.5c0,.8-.4,1.3-1.2,1.3s-1.2-.5-1.2-1.3Z"/><path class="cls-7" d="M125.9,166.6c0-2.1,1.6-2.8,3.6-3.1l1.3-.2c.8,0,1-.4,1-.8,0-.6-.5-1.2-1.5-1.2s-1.4.3-1.7,1c-.2.5-.6.8-1.2.8-.9,0-1.4-.9-.8-1.9.7-1.1,2-1.7,3.5-1.7,2.8,0,3.9,1.5,3.9,4.1v4.4c0,.8-.4,1.2-1.1,1.2s-1.1-.4-1.1-1,0-.4.1-.5c-.5.9-1.4,1.6-3,1.6s-3.2-1.1-3.2-2.9ZM131.9,165.5v-1c-.2.2-.5.3-1.1.4l-.8.2c-1.1.2-1.8.6-1.8,1.4s.6,1.3,1.5,1.3c1.2,0,2.2-.9,2.2-2.2Z"/><path class="cls-7" d="M137.4,166.2v-4.5h-1.3c-.7,0-1.1-.3-1.1-.9s.4-.9,1.1-.9h1.3v-2.2c0-.8.4-1.3,1.2-1.3s1.2.5,1.2,1.3v2.2h1.4c.7,0,1.1.3,1.1.9s-.4.9-1.1.9h-1.4v4.3c0,.8.5,1.4,1.1,1.4h0c.6,0,.9.4.9.9s-.2.7-.7.9c-.2,0-.5.1-.8.1-1.8,0-3-.8-3-3Z"/><path class="cls-7" d="M142.9,164.5c0-2.9,1.9-4.9,4.6-4.9s4.1,2.1,4.4,3.9c.2,1.3-.3,1.5-1.2,1.5h-5.4c0,1.5.9,2.6,2.3,2.6s1.5-.4,1.8-1.1c.2-.5.6-.8,1.1-.8.8,0,1.4.8.8,1.9-.5.9-1.8,1.8-3.7,1.8-2.8,0-4.7-1.8-4.7-5ZM147.5,161.3c-1.2,0-2.1.9-2.3,2.1h4.4c0-1.2-.8-2.1-2.1-2.1Z"/></g><path class="cls-116" d="M119.7,168.1v-7.1c0-.8.4-1.3,1.2-1.3s1.2.5,1.2,1.3,0,.4,0,.6c.5-1,1.3-1.9,2.2-1.9s.6,0,.8.2c.2.2.4.5.4.8s-.1.6-.3.8c-.2.2-.4.2-.8.3-1.2,0-2.2.7-2.2,2.7v3.5c0,.8-.4,1.3-1.2,1.3s-1.2-.5-1.2-1.3Z"/><path class="cls-116" d="M125.9,166.6c0-2.1,1.6-2.8,3.6-3.1l1.3-.2c.8,0,1-.4,1-.8,0-.6-.5-1.2-1.5-1.2s-1.4.3-1.7,1c-.2.5-.6.8-1.2.8-.9,0-1.4-.9-.8-1.9.7-1.1,2-1.7,3.5-1.7,2.8,0,3.9,1.5,3.9,4.1v4.4c0,.8-.4,1.2-1.1,1.2s-1.1-.4-1.1-1,0-.4.1-.5c-.5.9-1.4,1.6-3,1.6s-3.2-1.1-3.2-2.9ZM131.9,165.5v-1c-.2.2-.5.3-1.1.4l-.8.2c-1.1.2-1.8.6-1.8,1.4s.6,1.3,1.5,1.3c1.2,0,2.2-.9,2.2-2.2Z"/><path class="cls-116" d="M137.4,166.2v-4.5h-1.3c-.7,0-1.1-.3-1.1-.9s.4-.9,1.1-.9h1.3v-2.2c0-.8.4-1.3,1.2-1.3s1.2.5,1.2,1.3v2.2h1.4c.7,0,1.1.3,1.1.9s-.4.9-1.1.9h-1.4v4.3c0,.8.5,1.4,1.1,1.4h0c.6,0,.9.4.9.9s-.2.7-.7.9c-.2,0-.5.1-.8.1-1.8,0-3-.8-3-3Z"/><path class="cls-116" d="M142.9,164.5c0-2.9,1.9-4.9,4.6-4.9s4.1,2.1,4.4,3.9c.2,1.3-.3,1.5-1.2,1.5h-5.4c0,1.5.9,2.6,2.3,2.6s1.5-.4,1.8-1.1c.2-.5.6-.8,1.1-.8.8,0,1.4.8.8,1.9-.5.9-1.8,1.8-3.7,1.8-2.8,0-4.7-1.8-4.7-5ZM147.5,161.3c-1.2,0-2.1.9-2.3,2.1h4.4c0-1.2-.8-2.1-2.1-2.1Z"/><path class="cls-116" d="M123.3,760.5v-4.5h-1.3c-.7,0-1.1-.3-1.1-.9s.4-.9,1.1-.9h1.3v-2.2c0-.8.4-1.3,1.2-1.3s1.2.5,1.2,1.3v2.2h1.4c.7,0,1.1.3,1.1.9s-.4.9-1.1.9h-1.4v4.3c0,.8.5,1.4,1.1,1.4h0c.6,0,.9.4.9.9s-.2.7-.7.9c-.2,0-.5.1-.8.1-1.8,0-3-.8-3-3Z"/><path class="cls-116" d="M129.4,760.8c0-2.1,1.6-2.8,3.6-3.1l1.3-.2c.8,0,1-.4,1-.8,0-.6-.5-1.2-1.5-1.2s-1.4.3-1.7,1c-.2.5-.6.8-1.2.8-.9,0-1.4-.9-.8-1.9.7-1.1,2-1.7,3.5-1.7,2.8,0,3.9,1.5,3.9,4.1v4.4c0,.8-.4,1.2-1.1,1.2s-1.1-.4-1.1-1,0-.4.1-.5c-.5.9-1.4,1.6-3,1.6s-3.2-1.1-3.2-2.9ZM135.4,759.8v-1c-.2.2-.5.3-1.1.4l-.8.2c-1.1.2-1.8.6-1.8,1.4s.6,1.3,1.5,1.3c1.2,0,2.2-.9,2.2-2.2Z"/><path class="cls-116" d="M140.2,766.2v-10.9c0-.8.4-1.3,1.2-1.3s1.1.4,1.1,1.2,0,.3,0,.4c.6-1,1.6-1.6,3-1.6,2.4,0,4,2,4,5s-1.8,4.9-4.1,4.9-2.3-.7-2.9-1.6c0,.4,0,.6,0,.9v3.2c0,.8-.4,1.3-1.2,1.3s-1.2-.5-1.2-1.3ZM147.1,758.8c0-1.8-.9-3.1-2.4-3.1s-2.4,1.2-2.4,3.1,1,3.1,2.4,3.1,2.4-1.3,2.4-3.1Z"/><path class="cls-116" d="M117.4,778.7c0-2.9,1.3-6,3.1-8,.2-.2.4-.4.7-.4.6,0,.8.6.4,1.1-1.6,2.2-2.6,4.7-2.6,7.3s.1,2.1.4,3c.2.6,0,1.1-.6,1.1s-.6-.2-.8-.7c-.3-.9-.6-2.1-.6-3.5Z"/><path class="cls-116" d="M121.6,780l1.8-8.4c.1-.5.4-.9.9-.9s.9.4.8,1l-.5,2.3c0,.2,0,.4-.2.7.4-.5,1-1,2.2-1s2.3,1.4,1.9,3l-.7,3.4c-.1.5-.4.9-.9.9s-.9-.4-.8-1.1l.7-3.3c.2-1-.2-1.6-1-1.6s-1.6.7-1.8,1.8l-.7,3.3c-.1.5-.4.9-.9.9s-.9-.4-.7-1Z"/><path class="cls-116" d="M129.9,778.1c0-2.5,1.6-4.3,4-4.3s3.1,1.3,3.1,3.1-1.5,4.3-4,4.3-3.1-1.2-3.1-3ZM135.3,776.8c0-1.1-.6-1.7-1.5-1.7-1.4,0-2.2,1.5-2.2,2.9s.6,1.7,1.5,1.7c1.4,0,2.2-1.5,2.2-2.9Z"/><path class="cls-116" d="M138.1,780l1.8-8.4c0-.5.4-.9.9-.9s.9.4.7,1l-1.8,8.3c-.1.5-.4.9-.9.9s-.9-.4-.7-1Z"/><path class="cls-116" d="M142,778.1c0-2.2,1.4-4.4,3.6-4.4s1.8.6,2.2,1.4c0-.3,0-.6.1-.9l.5-2.5c.1-.5.4-.9.9-.9s.9.4.7,1l-1.8,8.3c-.1.6-.4,1-1,1s-.7-.2-.7-.6,0-.3,0-.4c-.5.5-1.1,1-2.2,1s-2.5-1.1-2.5-3ZM147.4,776.8c0-1.1-.6-1.7-1.5-1.7-1.4,0-2.2,1.5-2.2,2.9s.6,1.8,1.5,1.8c1.3,0,2.2-1.5,2.2-2.9Z"/><path class="cls-116" d="M154,774.5c0,2.9-1.3,6-3.1,8-.2.2-.4.4-.7.4-.6,0-.8-.6-.4-1.1,1.6-2.2,2.6-4.7,2.6-7.3s-.1-2.1-.4-3c-.2-.6,0-1.1.6-1.1s.6.2.8.7c.3.9.6,2.1.6,3.5Z"/><text class="cls-114" transform="translate(107.7 157.6) rotate(-150.8) scale(1.4 1) skewX(.3)"><tspan x="0" y="0">I</tspan></text><text class="cls-36" transform="translate(103.4 155.2) rotate(-146.6) scale(1.4 1) skewX(.4)"><tspan x="0" y="0"> </tspan></text><text class="cls-54" transform="translate(100.1 153) rotate(-142.5) scale(1.4 1) skewX(.4)"><tspan x="0" y="0"> </tspan></text><text class="cls-78" transform="translate(96.1 150) rotate(-138.4) scale(1.4 1) skewX(0)"><tspan x="0" y="0"> </tspan></text><text class="cls-95" transform="translate(92.4 146.7) rotate(-134.3) scale(1.4 1) skewX(-.2)"><tspan x="0" y="0"> </tspan></text><text class="cls-46" transform="translate(88.9 143.1) rotate(-128.8) scale(1.4 1) skewX(.4)"><tspan x="0" y="0"> </tspan></text><text class="cls-90" transform="translate(85.7 139.3) rotate(-124.7) scale(1.4 1) skewX(.1)"><tspan x="0" y="0"> </tspan></text><text class="cls-92" transform="translate(82.8 135.2) rotate(-120.6) scale(1.4 1) skewX(-.2)"><tspan x="0" y="0"> </tspan></text><text class="cls-53" transform="translate(80.3 130.9) rotate(-116.4) scale(1.4 1) skewX(-.4)"><tspan x="0" y="0"> </tspan></text><text class="cls-44" transform="translate(78.2 126.4) rotate(-112.2) scale(1.4 1) skewX(-.3)"><tspan x="0" y="0"> </tspan></text><text class="cls-89" transform="translate(76.7 122.7) rotate(-108) scale(1.4 1) skewX(-.2)"><tspan x="0" y="0">I</tspan></text><text class="cls-79" transform="translate(75.2 118) rotate(-103.7) scale(1.4 1) skewX(0)"><tspan x="0" y="0"> </tspan></text><text class="cls-55" transform="translate(74.2 114.1) rotate(-99.4) scale(1.4 1) skewX(.4)"><tspan x="0" y="0"> </tspan></text><text class="cls-100" transform="translate(73.6 110.2) rotate(-96.5) scale(1.4 1) skewX(0)"><tspan x="0" y="0"> </tspan></text><text class="cls-60" transform="translate(73.1 106.3) rotate(-92.2) scale(1.4 1) skewX(.5)"><tspan x="0" y="0"> </tspan></text><text class="cls-105" transform="translate(72.9 102.4) rotate(-89.3) scale(1.4 1) skewX(0)"><tspan x="0" y="0"> </tspan></text><text class="cls-41" transform="translate(73 98.4) rotate(-86.4) scale(1.4 1) skewX(-.5)"><tspan x="0" y="0"> </tspan></text><text class="cls-71" transform="translate(73.3 94.5) rotate(-82) scale(1.4 1) skewX(0)"><tspan x="0" y="0"> </tspan></text><text class="cls-67" transform="translate(73.9 90.6) rotate(-79.2) scale(1.4 1) skewX(-.5)"><tspan x="0" y="0"> </tspan></text><text class="cls-105" transform="translate(74.6 86.7) rotate(-74.9) scale(1.4 1) skewX(0)"><tspan x="0" y="0"> </tspan></text><text class="cls-85" transform="translate(75.6 82.9) rotate(-70.6) scale(1.4 1) skewX(.1)"><tspan x="0" y="0">I</tspan></text><text class="cls-109" transform="translate(77.3 78.2) rotate(-66.4) scale(1.4 1) skewX(.2)"><tspan x="0" y="0"> </tspan></text><text class="cls-40" transform="translate(78.9 74.6) rotate(-63.6) scale(1.4 1) skewX(-.3)"><tspan x="0" y="0"> </tspan></text><text class="cls-72" transform="translate(80.6 71) rotate(-59.4) scale(1.4 1) skewX(.1)"><tspan x="0" y="0"> </tspan></text><text class="cls-39" transform="translate(82.6 67.8) rotate(-56.6) scale(1.4 1) skewX(-.3)"><tspan x="0" y="0"> </tspan></text><text class="cls-83" transform="translate(84.6 64.7) rotate(-52.5) scale(1.4 1) skewX(.1)"><tspan x="0" y="0"> </tspan></text><text class="cls-68" transform="translate(87 61.6) rotate(-48.4) scale(1.4 1) skewX(.5)"><tspan x="0" y="0"> </tspan></text><text class="cls-58" transform="translate(89.6 58.6) rotate(-45.7) scale(1.4 1) skewX(-.5)"><tspan x="0" y="0">I</tspan></text><text class="cls-64" transform="translate(93.1 55.1) rotate(-41.6) scale(1.4 1) skewX(-.4)"><tspan x="0" y="0"> </tspan></text><text class="cls-97" transform="translate(96.1 52.5) rotate(-37.5) scale(1.4 1) skewX(-.3)"><tspan x="0" y="0"> </tspan></text><text class="cls-107" transform="translate(99.7 49.7) rotate(-33.4) scale(1.4 1) skewX(-.2)"><tspan x="0" y="0"> </tspan></text><text class="cls-87" transform="translate(103.3 47.4) rotate(-29.2) scale(1.4 1) skewX(.2)"><tspan x="0" y="0"> </tspan></text><text class="cls-96" transform="translate(106.5 45.6) rotate(-26.4) scale(1.4 1) skewX(-.3)"><tspan x="0" y="0"> </tspan></text><text class="cls-73" transform="translate(110 43.9) rotate(-22.2) scale(1.4 1) skewX(-.2)"><tspan x="0" y="0">I</tspan></text><text class="cls-74" transform="translate(114.6 42) rotate(-18) scale(1.4 1) skewX(.1)"><tspan x="0" y="0"> </tspan></text><text class="cls-37" transform="translate(117.8 41) rotate(-15.1) scale(1.4 1) skewX(-.3)"><tspan x="0" y="0"> </tspan></text><text class="cls-78" transform="translate(122.1 39.9) rotate(-10.8) scale(1.4 1) skewX(.1)"><tspan x="0" y="0"> </tspan></text><text class="cls-112" transform="translate(125.5 39.2) rotate(-8) scale(1.4 1) skewX(0)"><tspan x="0" y="0"> </tspan></text><text class="cls-93" transform="translate(128.8 38.8) rotate(-5.1) scale(1.4 1) skewX(-.3)"><tspan x="0" y="0"> </tspan></text><text class="cls-98" transform="translate(132.7 38.4) rotate(-.7) scale(1.4 1) skewX(.3)"><tspan x="0" y="0">I</tspan></text><text class="cls-104" transform="translate(136.6 38.4) rotate(2.2) scale(1.4 1) skewX(.1)"><tspan x="0" y="0"> </tspan></text><text class="cls-91" transform="translate(139.5 38.5) rotate(5.1) scale(1.4 1)"><tspan x="0" y="0"> </tspan></text><text class="cls-80" transform="translate(143.3 38.8) rotate(9.4) scale(1.4 1) skewX(.1)"><tspan x="0" y="0"> </tspan></text><text class="cls-51" transform="translate(148.4 39.6) rotate(12.3) scale(1.4 1) skewX(-.4)"><tspan x="0" y="0"> </tspan></text><text class="cls-108" transform="translate(151.2 40.3) rotate(15.1) scale(1.4 1) skewX(-.3)"><tspan x="0" y="0"> </tspan></text><text class="cls-61" transform="translate(154 41.1) rotate(18) scale(1.4 1) skewX(-.4)"><tspan x="0" y="0">I</tspan></text><text class="cls-43" transform="translate(157.7 42.3) rotate(22.2) scale(1.4 1) skewX(.4)"><tspan x="0" y="0"> </tspan></text><text class="cls-99" transform="translate(160.5 43.4) rotate(25) scale(1.4 1) skewX(.3)"><tspan x="0" y="0"> </tspan></text><text class="cls-70" transform="translate(163.6 44.8) rotate(27.8) scale(1.4 1) skewX(0)"><tspan x="0" y="0"> </tspan></text><text class="cls-73" transform="translate(166.7 46.4) rotate(30.6) scale(1.4 1) skewX(0)"><tspan x="0" y="0"> </tspan></text><text class="cls-94" transform="translate(169.2 47.9) rotate(33.4) scale(1.4 1) skewX(0)"><tspan x="0" y="0"> </tspan></text><text class="cls-83" transform="translate(171.4 49.4) rotate(36.1) scale(1.4 1) skewX(0)"><tspan x="0" y="0">I</tspan></text><text class="cls-50" transform="translate(174.5 51.7) rotate(38.8) scale(1.4 1) skewX(-.3)"><tspan x="0" y="0"> </tspan></text><text class="cls-86" transform="translate(176.8 53.5) rotate(41.6) scale(1.4 1) skewX(-.3)"><tspan x="0" y="0"> </tspan></text><text class="cls-63" transform="translate(179 55.6) rotate(44.3) scale(1.4 1) skewX(-.3)"><tspan x="0" y="0"> </tspan></text><text class="cls-45" transform="translate(181.2 57.7) rotate(47) scale(1.4 1) skewX(-.3)"><tspan x="0" y="0"> </tspan></text><text class="cls-49" transform="translate(183.2 59.8) rotate(51.2) scale(1.4 1) skewX(.4)"><tspan x="0" y="0">I</tspan></text><text class="cls-81" transform="translate(185.6 62.9) rotate(53.9) scale(1.4 1) skewX(.1)"><tspan x="0" y="0"> </tspan></text><text class="cls-70" transform="translate(187.4 65.2) rotate(56.6) scale(1.4 1) skewX(.2)"><tspan x="0" y="0"> </tspan></text><text class="cls-76" transform="translate(189 67.6) rotate(59.4) scale(1.4 1) skewX(.3)"><tspan x="0" y="0"> </tspan></text><text class="cls-103" transform="translate(190.5 70.1) rotate(62.2) scale(1.4 1) skewX(0)"><tspan x="0" y="0">I</tspan></text><text class="cls-104" transform="translate(192.3 73.6) rotate(65) scale(1.4 1) skewX(-.3)"><tspan x="0" y="0"> </tspan></text><text class="cls-52" transform="translate(193.6 76.5) rotate(67.8) scale(1.4 1) skewX(-.4)"><tspan x="0" y="0"> </tspan></text><text class="cls-71" transform="translate(194.9 79.6) rotate(72) scale(1.4 1) skewX(.3)"><tspan x="0" y="0">I</tspan></text><text class="cls-101" transform="translate(196.1 83.3) rotate(74.9) scale(1.4 1) skewX(0)"><tspan x="0" y="0"> </tspan></text><text class="cls-87" transform="translate(196.9 86.1) rotate(77.7) scale(1.4 1) skewX(.2)"><tspan x="0" y="0"> </tspan></text><text class="cls-77" transform="translate(197.5 88.9) rotate(80.6) scale(1.4 1) skewX(0)"><tspan x="0" y="0">I</tspan></text><text class="cls-75" transform="translate(198.1 92.8) rotate(83.5) scale(1.4 1) skewX(.1)"><tspan x="0" y="0"> </tspan></text><text class="cls-56" transform="translate(198.4 95.1) rotate(84.9) scale(1.4 1) skewX(-.4)"><tspan x="0" y="0"> </tspan></text><text class="cls-47" transform="translate(198.6 97.5) rotate(87.8) scale(1.4 1) skewX(-.4)"><tspan x="0" y="0">I</tspan></text><text class="cls-84" transform="translate(198.7 101.4) rotate(90.7) scale(1.4 1) skewX(-.2)"><tspan x="0" y="0"> </tspan></text><text class="cls-42" transform="translate(198.6 103.3) rotate(92.2) scale(1.4 1) skewX(-.5)"><tspan x="0" y="0"> </tspan></text><text class="cls-65" transform="translate(198.6 105.5) rotate(95.1) scale(1.4 1) skewX(-.4)"><tspan x="0" y="0">I</tspan></text><text class="cls-69" transform="translate(198.2 109.4) rotate(98) scale(1.4 1) skewX(-.3)"><tspan x="0" y="0"> </tspan></text><text class="cls-57" transform="translate(197.9 111.5) rotate(100.8) scale(1.4 1) skewX(.4)"><tspan x="0" y="0"> </tspan></text><text class="cls-66" transform="translate(197.5 113.5) rotate(102.3) scale(1.4 1) skewX(-.5)"><tspan x="0" y="0">I</tspan></text><text class="cls-38" transform="translate(196.6 117.3) rotate(105.1) scale(1.4 1) skewX(-.4)"><tspan x="0" y="0"> </tspan></text><text class="cls-115" transform="translate(196.1 119.2) rotate(108) scale(1.4 1) skewX(.3)"><tspan x="0" y="0"> </tspan></text><text class="cls-62" transform="translate(195.5 121.3) rotate(110.8) scale(1.4 1) skewX(.3)"><tspan x="0" y="0">I</tspan></text><text class="cls-59" transform="translate(194.1 124.9) rotate(113.6) scale(1.4 1) skewX(.4)"><tspan x="0" y="0"> </tspan></text><text class="cls-86" transform="translate(193.3 126.7) rotate(115) scale(1.4 1) skewX(0)"><tspan x="0" y="0"> </tspan></text><text class="cls-102" transform="translate(192.4 128.8) rotate(117.8) scale(1.4 1) skewX(0)"><tspan x="0" y="0">I</tspan></text><text class="cls-111" transform="translate(190.6 132.2) rotate(120.6) scale(1.4 1) skewX(-.2)"><tspan x="0" y="0"> </tspan></text><text class="cls-52" transform="translate(189 134.9) rotate(124.7) scale(1.4 1) skewX(.4)"><tspan x="0" y="0">I</tspan></text><text class="cls-88" transform="translate(186.7 138.2) rotate(127.5) scale(1.4 1) skewX(.2)"><tspan x="0" y="0"> </tspan></text><text class="cls-96" transform="translate(185.1 140.4) rotate(130.2) scale(1.4 1) skewX(0)"><tspan x="0" y="0">I</tspan></text><text class="cls-69" transform="translate(182.5 143.3) rotate(133) scale(1.4 1) skewX(-.1)"><tspan x="0" y="0"> </tspan></text><text class="cls-103" transform="translate(180.8 145.2) rotate(135.7) scale(1.4 1) skewX(-.3)"><tspan x="0" y="0">I</tspan></text><text class="cls-82" transform="translate(178 147.8) rotate(138.4) scale(1.4 1) skewX(-.2)"><tspan x="0" y="0"> </tspan></text><text class="cls-113" transform="translate(176.6 149.1) rotate(141.2) scale(1.4 1) skewX(-.2)"><tspan x="0" y="0">I</tspan></text><text class="cls-106" transform="translate(173.5 151.6) rotate(143.9) scale(1.4 1) skewX(.1)"><tspan x="0" y="0"> </tspan></text><text class="cls-48" transform="translate(172.5 152.3) rotate(146.6) scale(1.4 1) skewX(.4)"><tspan x="0" y="0">I</tspan></text><text class="cls-110" transform="translate(169.3 154.5) rotate(148) scale(1.4 1) skewX(-.1)"><tspan x="0" y="0"> </tspan></text><text class="cls-77" transform="translate(168.6 155) rotate(150.8) scale(1.4 1) skewX(.3)"><tspan x="0" y="0">I</tspan></text><g class="cls-122"><path class="cls-34" d="M135.6,131c16.6,0,30.1-13.5,30.1-30.1s-13.5-30.1-30.1-30.1-30.1,13.5-30.1,30.1,13.5,30.1,30.1,30.1"/><path class="cls-34" d="M135.6,298.3c16.6,0,30.1-13.5,30.1-30.1s-13.5-30.1-30.1-30.1-30.1,13.5-30.1,30.1,13.5,30.1,30.1,30.1"/><path class="cls-33" d="M135.4,319.1c28.3,0,51.3-23,51.3-51.3s-23-51.3-51.3-51.3-51.3,23-51.3,51.3,23,51.3,51.3,51.3"/><path class="cls-33" d="M134.8,152.1c28.3,0,51.3-23,51.3-51.3s-23-51.3-51.3-51.3-51.3,23-51.3,51.3,23,51.3,51.3,51.3"/><path class="cls-130" d="M135.1,427.6c20.3,0,36.8-16.5,36.8-36.8s-16.5-36.8-36.8-36.8-36.8,16.5-36.8,36.8,16.5,36.8,36.8,36.8"/><path class="cls-6" d="M135.1,427.6c20.3,0,36.8-16.5,36.8-36.8s-16.5-36.8-36.8-36.8-36.8,16.5-36.8,36.8,16.5,36.8,36.8,36.8Z"/><path class="cls-130" d="M135.1,588.2c11.1,0,20.1-9,20.1-20.1s-9-20.1-20.1-20.1-20.1,9-20.1,20.1,9,20.1,20.1,20.1"/><path class="cls-3" d="M135.1,588.2c11.1,0,20.1-9,20.1-20.1s-9-20.1-20.1-20.1-20.1,9-20.1,20.1,9,20.1,20.1,20.1Z"/><path class="cls-130" d="M277.7,739.5c5.5,0,10-4.5,10-10s-4.5-10-10-10-10,4.5-10,10,4.5,10,10,10"/><circle class="cls-5" cx="277.7" cy="729.5" r="10" transform="translate(-188.2 103.2) rotate(-15.8)"/><path class="cls-130" d="M277.7,672.8c5.5,0,10-4.5,10-10s-4.5-10-10-10-10,4.5-10,10,4.5,10,10,10"/><circle class="cls-5" cx="277.7" cy="662.8" r="10" transform="translate(-144.8 81.5) rotate(-13.3)"/><path class="cls-130" d="M135.1,427.8c20.3,0,36.8-16.5,36.8-36.8s-16.5-36.8-36.8-36.8-36.8,16.5-36.8,36.8,16.5,36.8,36.8,36.8"/><path class="cls-6" d="M135.1,427.8c20.3,0,36.8-16.5,36.8-36.8s-16.5-36.8-36.8-36.8-36.8,16.5-36.8,36.8,16.5,36.8,36.8,36.8Z"/><path class="cls-130" d="M135.1,412.8c12,0,21.7-9.7,21.7-21.7s-9.7-21.7-21.7-21.7-21.7,9.7-21.7,21.7,9.7,21.7,21.7,21.7"/><path class="cls-6" d="M135.1,412.8c12,0,21.7-9.7,21.7-21.7s-9.7-21.7-21.7-21.7-21.7,9.7-21.7,21.7,9.7,21.7,21.7,21.7Z"/><path class="cls-130" d="M129.4,388.8v4.2c.2,2.7,2.7,4.9,5.6,4.9s5.4-2.2,5.6-4.9v-4.2"/><path class="cls-18" d="M129.4,388.8v4.2c.2,2.7,2.7,4.9,5.6,4.9s5.4-2.2,5.6-4.9v-4.2"/><path class="cls-130" d="M142.3,384.4c.4-3,4.1-22.7,4.1-29.1s-5.1-11.7-11.3-11.7-11.3,5.2-11.3,11.7,3.3,25.5,4.1,29.1c1.9,9.1,13.4,7.9,14.4,0"/><path class="cls-20" d="M142.3,384.4c.4-3,4.1-22.7,4.1-29.1s-5.1-11.7-11.3-11.7-11.3,5.2-11.3,11.7,3.3,25.5,4.1,29.1c1.9,9.1,13.4,7.9,14.4,0Z"/><path class="cls-130" d="M129.2,46.1v56.6c0,.6.5,1.1,1.1,1.1h9.1c.6,0,1.1-.5,1.1-1.1v-56.6c0-.6-.5-1.1-1.1-1.1h-9.1c-.6,0-1.1.5-1.1,1.1"/><path class="cls-8" d="M130.3,45.1h9.1c.6,0,1.1.5,1.1,1.1v56.6c0,.6-.5,1.1-1.1,1.1h-9.1c-.6,0-1.1-.5-1.1-1.1v-56.6c0-.6.5-1.1,1.1-1.1Z"/><path class="cls-130" d="M129.2,214.2v56.6c0,.6.5,1.1,1.1,1.1h9.1c.6,0,1.1-.5,1.1-1.1v-56.6c0-.6-.5-1.1-1.1-1.1h-9.1c-.6,0-1.1.5-1.1,1.1"/><path class="cls-8" d="M130.3,213.2h9.1c.6,0,1.1.5,1.1,1.1v56.6c0,.6-.5,1.1-1.1,1.1h-9.1c-.6,0-1.1-.5-1.1-1.1v-56.6c0-.6.5-1.1,1.1-1.1Z"/></g><polygon class="cls-130" points="135.2 628.6 88.9 655.3 88.8 708.7 135 735.3 181.3 708.5 181.4 655.2 135.2 628.6"/><polygon class="cls-6" points="135.2 628.6 88.9 655.3 88.8 708.7 135 735.3 181.3 708.5 181.4 655.2 135.2 628.6"/><g class="cls-128"><path class="cls-130" d="M98.3,653.9l.2,27.8c1.3,18.2,17.2,32.6,36.6,32.6s35.3-14.4,36.6-32.6l.2-27.8"/><path class="cls-20" d="M98.3,653.9l.2,27.8c1.3,18.2,17.2,32.6,36.6,32.6s35.3-14.4,36.6-32.6l.2-27.8"/><path class="cls-130" d="M135.1,690c20.3,0,36.8-15.8,36.8-35.3s-16.5-35.3-36.8-35.3-36.8,15.8-36.8,35.3,16.5,35.3,36.8,35.3"/><ellipse class="cls-6" cx="135.1" cy="654.6" rx="36.8" ry="35.3"/><path class="cls-3" d="M45,.8h533.6c24.4,0,44.1,19.8,44.1,44.1v697.3c0,24.4-19.8,44.1-44.1,44.1H45c-24.4,0-44.1-19.8-44.1-44.1V45C.8,20.6,20.6.8,45,.8Z"/><path class="cls-32" d="M346.2,319.4c1.5,0,3.2-.2,4.7,0,1.4.2,3,.6,4.4,1,.6.2,1,.3,1.7.3.7,0,1.4.2,2,.4.7.1,1.4,0,1.9-.4.1,0,.2-.5.3-.7.4-.5.8-.1.8-.9,0-.6-1.5-2.6-2-3-1.3-.9-3-1-4.6-1-1.7,0-3.4,0-5.1,0-1.4,0-2.3.8-3.6,1.1,0,.9-.5,1.1-1.1,1.6"/><path class="cls-35" d="M344.6,684c11.7,0,21.2-9.5,21.2-21.2s-9.5-21.2-21.2-21.2-21.2,9.5-21.2,21.2,9.5,21.2,21.2,21.2"/><path class="cls-129" d="M344.6,750.7c11.7,0,21.2-9.5,21.2-21.2s-9.5-21.2-21.2-21.2-21.2,9.5-21.2,21.2,9.5,21.2,21.2,21.2"/><path class="cls-13" d="M455.6,448v-7.4s3,7.4,13.9,7.4"/><path class="cls-13" d="M522.2,448.1v-7.4s-3,7.4-13.9,7.4"/><path class="cls-13" d="M488.7,440.3c-.9,0-2.7.2-3.4,4.6-.6,4-3.9,3.1-3.9,3.1"/><path class="cls-13" d="M489.1,440.3c.9,0,2.7.2,3.4,4.6.6,4,3.9,3.1,3.9,3.1"/></g><path class="cls-116" d="M302.2,444.3c0-2.3,1.5-3.7,3.5-3.7s3.6,1.4,3.6,3.7-1.5,3.7-3.6,3.7-3.5-1.4-3.5-3.7ZM307.6,444.3c0-1.5-.7-2.3-1.8-2.3s-1.8.8-1.8,2.3.7,2.3,1.8,2.3,1.8-.8,1.8-2.3Z"/><path class="cls-116" d="M310.2,444.3c0-2.3,1.6-3.7,3.6-3.7s2.5.8,2.9,1.6c.4.9,0,1.5-.6,1.5s-.7-.2-.9-.7c-.2-.6-.6-1-1.4-1s-1.8.8-1.8,2.3.7,2.3,1.8,2.3,1.3-.5,1.5-1.1c.2-.5.5-.7.8-.7.6,0,1,.6.7,1.4-.4.9-1.3,1.7-3.1,1.7s-3.5-1.4-3.5-3.7Z"/><path class="cls-116" d="M319.1,445.6v-3.4h-.9c-.5,0-.8-.3-.8-.7s.3-.7.8-.7h.9v-1.7c0-.6.3-1,.9-1s.9.4.9,1v1.7h1.1c.5,0,.8.2.8.7s-.3.7-.8.7h-1.1v3.2c0,.6.4,1,.8,1h0c.5,0,.7.3.7.7s-.2.5-.5.7c-.2,0-.4,0-.6,0-1.3,0-2.2-.6-2.2-2.3Z"/><polyline class="cls-13" points="332.1 447.8 332.1 445.5 336.3 445.5 337 445.5 337 442.9 341.8 442.9 341.8 442.9 341.8 440.3 346.1 440.3"/><line class="cls-13" x1="278.5" y1="448" x2="292.6" y2="440.3"/><g class="cls-125"><path class="cls-129" d="M355.6,392.6c-.3-25.5-17.2-28-17.2-48.4,0-29.3,36.1-36.3,36.1-76.8s-27.8-62.6-62.2-63.2h0c-.2,0-.3,0-.5,0s-.3,0-.5,0h0c-34.4.6-62.2,28.7-62.2,63.2s36.1,47.6,36.1,76.8-16.3,23.6-16.3,48.4,15.1,42.4,43.3,42.4,43.6-22.1,43.4-42.4"/><path class="cls-2" d="M355.6,392.6c-.3-25.5-17.2-28-17.2-48.4,0-29.3,36.1-36.3,36.1-76.8s-27.8-62.6-62.2-63.2h0c-.2,0-.3,0-.5,0s-.3,0-.5,0h0c-34.4.6-62.2,28.7-62.2,63.2s36.1,47.6,36.1,76.8-16.3,23.6-16.3,48.4,15.1,42.4,43.3,42.4,43.6-22.1,43.4-42.4Z"/><path class="cls-116" d="M311.8,200c1.4,0,2.6-1.2,2.6-2.6s-1.2-2.6-2.6-2.6-2.6,1.2-2.6,2.6,1.2,2.6,2.6,2.6"/><path class="cls-116" d="M270.8,330.2c2.3,0,4.1-1.8,4.1-4.1s-1.8-4.1-4.1-4.1-4.1,1.8-4.1,4.1,1.8,4.1,4.1,4.1"/><circle class="cls-10" cx="270.8" cy="326.1" r="4.1" transform="translate(-134.1 451.5) rotate(-67.5)"/><path class="cls-116" d="M352.7,330.2c2.3,0,4.1-1.8,4.1-4.1s-1.8-4.1-4.1-4.1-4.1,1.8-4.1,4.1,1.8,4.1,4.1,4.1"/><circle class="cls-10" cx="352.7" cy="326.1" r="4.1" transform="translate(-83.5 527.1) rotate(-67.5)"/><path class="cls-116" d="M245.7,251.8c1.4,0,2.6-1.2,2.6-2.6s-1.2-2.6-2.6-2.6-2.6,1.2-2.6,2.6,1.2,2.6,2.6,2.6"/><path class="cls-116" d="M377.7,251.8c1.4,0,2.6-1.2,2.6-2.6s-1.2-2.6-2.6-2.6-2.6,1.2-2.6,2.6,1.2,2.6,2.6,2.6"/><path class="cls-25" d="M341.5,156.7c9.5-5.1,17.6-12.5,23.5-21.6"/><path class="cls-31" d="M334.1,41.7c-4.6-1.7-9.5-3-14.6-3.6-3.1-.4-6.3-.5-9.3-.5"/><path class="cls-24" d="M361.4,61.6c-5.3-6.7-11.9-12.3-19.5-16.4-.6-.3-1.1-.6-1.7-.9"/><path class="cls-23" d="M374.3,91c-1.3-8.5-4.4-16.4-8.8-23.5"/><path class="cls-29" d="M369.1,127.7c2.8-5.9,4.6-12.3,5.5-19.1.4-3.2.5-6.5.5-9.6"/><path class="cls-32" d="M488.4,165.8c35.4,0,64.1-28.7,64.1-64.1s-28.7-64.1-64.1-64.1-64.1,28.7-64.1,64.1,28.7,64.1,64.1,64.1"/><path class="cls-14" d="M517.9,157.1c20.3-10.5,34.2-31.8,34.2-56.2,0-34.9-28.3-63.3-63.3-63.3s-63.3,28.3-63.3,63.3,13.7,45.4,33.7,56"/><path class="cls-32" d="M488.4,332.3c35.4,0,64.1-28.7,64.1-64.1s-28.7-64.1-64.1-64.1-64.1,28.7-64.1,64.1,28.7,64.1,64.1,64.1"/><path class="cls-14" d="M517.9,324.6c20.3-10.5,34.2-31.8,34.2-56.2,0-34.9-28.3-63.3-63.3-63.3s-63.3,28.3-63.3,63.3,13.7,45.4,33.7,56"/><path class="cls-32" d="M525.7,340.8c1.8,0,3.3-1.5,3.3-3.3s-1.5-3.3-3.3-3.3-3.3,1.5-3.3,3.3,1.5,3.3,3.3,3.3"/><path class="cls-32" d="M439.9,218c.1-.3.4-.3.7-.4.4-.1.7-.4,1.1-.6.6-.2,1.1-.5,1.7-.6.6,0,1.6-.4,2.2-.1.2,0,.6.4.8.6.1,0,.2.2.3.4,0,.2,0,.4.2.5,0,0,.3.1.4.3.1.2,0,.2,0,.4,0,.4,0,.6-.2,1-.4.6-1,.8-1.6,1-.4.1-.7.3-1.1.4-.5.2-1,0-1.5,0s-.8,0-1.2,0c-.5,0-.5-.3-.8-.5-.2-.2-.3-.2-.4-.4-.1-.2-.2-.3-.4-.5-.2-.2-.2-.3-.3-.5,0,0,0-.2,0-.2,0-.1-.2,0-.2-.3"/><path class="cls-116" d="M438.4,220.9c2.1,0,3.8-1.7,3.8-3.8s-1.7-3.8-3.8-3.8-3.8,1.7-3.8,3.8,1.7,3.8,3.8,3.8"/><path class="cls-17" d="M438.4,220.9c2.1,0,3.8-1.7,3.8-3.8s-1.7-3.8-3.8-3.8-3.8,1.7-3.8,3.8,1.7,3.8,3.8,3.8Z"/></g><line class="cls-15" x1="312.3" y1="598.1" x2="312.3" y2="538.7"/><line class="cls-15" x1="312.3" y1="628.6" x2="312.3" y2="619.4"/><path class="cls-116" d="M291.1,345.9v-10.9c0-.8.4-1.3,1.2-1.3s1.1.4,1.1,1.2,0,.3,0,.4c.6-1,1.6-1.6,3-1.6,2.4,0,4,2,4,5s-1.8,4.9-4.1,4.9-2.3-.7-2.9-1.6c0,.4,0,.6,0,.9v3.2c0,.8-.4,1.3-1.2,1.3s-1.2-.5-1.2-1.3ZM298,338.5c0-1.8-.9-3.1-2.4-3.1s-2.4,1.2-2.4,3.1,1,3.1,2.4,3.1,2.4-1.3,2.4-3.1Z"/><path class="cls-116" d="M302,331.3c0-.8.6-1.4,1.4-1.4s1.4.6,1.4,1.4-.6,1.4-1.4,1.4-1.4-.6-1.4-1.4ZM302.2,342v-7.1c0-.8.4-1.3,1.2-1.3s1.2.5,1.2,1.3v7.1c0,.8-.4,1.3-1.2,1.3s-1.2-.5-1.2-1.3Z"/><path class="cls-116" d="M308,340.2v-4.5h-1.3c-.7,0-1.1-.3-1.1-.9s.4-.9,1.1-.9h1.3v-2.2c0-.8.4-1.3,1.2-1.3s1.2.5,1.2,1.3v2.2h1.4c.7,0,1.1.3,1.1.9s-.4.9-1.1.9h-1.4v4.3c0,.8.5,1.4,1.1,1.4h0c.6,0,.9.4.9.9s-.2.7-.7.9c-.2,0-.5.1-.8.1-1.8,0-3-.8-3-3Z"/><path class="cls-116" d="M313.6,338.5c0-3.1,2.1-4.9,4.8-4.9s3.4,1.1,3.9,2.1c.6,1.2,0,2-.8,2s-.9-.3-1.2-.9c-.2-.8-.8-1.3-1.9-1.3s-2.4,1.1-2.4,3.1,1,3.1,2.4,3.1,1.8-.7,2-1.4c.2-.6.6-.9,1.1-.9.8,0,1.4.7.9,1.9-.5,1.2-1.8,2.3-4.1,2.3s-4.7-1.9-4.7-4.9Z"/><path class="cls-116" d="M324.2,342v-11.1c0-.8.4-1.3,1.2-1.3s1.2.5,1.2,1.3v3.4c0,.3,0,.5,0,.9.5-.9,1.4-1.6,2.8-1.6s3.2,1.4,3.2,3.7v4.8c0,.8-.4,1.3-1.2,1.3s-1.2-.5-1.2-1.3v-4.4c0-1.4-.7-2.2-1.7-2.2s-2,1-2,2.3v4.3c0,.8-.4,1.3-1.2,1.3s-1.2-.5-1.2-1.3Z"/><path class="cls-116" d="M464.4,333.2c-.5-1,.1-1.8.8-1.8s.9.3,1.2.9c.3.7.9,1.1,1.8,1.1s1.7-.5,1.7-1.2-.5-.9-1.5-1.1l-1.1-.2c-1.9-.4-3-1.3-3-2.8s1.5-2.8,3.8-2.8,3,.6,3.6,1.6c.6,1-.1,1.8-.8,1.8s-.9-.3-1.2-.8c-.3-.6-.8-.9-1.6-.9s-1.5.3-1.5,1,.4.8,1.5,1.1l1.1.2c1.8.4,3,1.2,3,2.8s-1.5,3-3.9,3-3.3-.8-3.9-1.9Z"/><path class="cls-116" d="M474,337.5v-10.9c0-.8.4-1.3,1.2-1.3s1.1.4,1.1,1.2,0,.3,0,.4c.6-1,1.6-1.6,3-1.6,2.4,0,4,2,4,5s-1.8,4.9-4.1,4.9-2.3-.7-2.9-1.6c0,.4,0,.6,0,.9v3.2c0,.8-.4,1.3-1.2,1.3s-1.2-.5-1.2-1.3ZM480.9,330.2c0-1.8-.9-3.1-2.4-3.1s-2.4,1.2-2.4,3.1,1,3.1,2.4,3.1,2.4-1.3,2.4-3.1Z"/><path class="cls-116" d="M484.6,332.2c0-2.1,1.6-2.8,3.6-3.1l1.3-.2c.8,0,1-.4,1-.8s-.5-1.2-1.5-1.2-1.4.3-1.7,1c-.2.5-.6.8-1.2.8-.9,0-1.4-.9-.8-1.9.7-1.1,2-1.7,3.5-1.7,2.8,0,3.9,1.5,3.9,4.1v4.4c0,.8-.4,1.2-1.1,1.2s-1.1-.4-1.1-1,0-.4.1-.5c-.5.9-1.4,1.6-3,1.6s-3.2-1.1-3.2-2.9ZM490.6,331.2v-1c-.2.2-.5.3-1.1.4l-.8.2c-1.1.2-1.8.6-1.8,1.4s.6,1.3,1.5,1.3c1.2,0,2.2-.9,2.2-2.2Z"/><path class="cls-116" d="M494.5,330.1c0-3.1,2.1-4.9,4.8-4.9s3.4,1.1,3.9,2.1c.6,1.2,0,2-.8,2s-.9-.3-1.2-.9c-.2-.8-.8-1.3-1.9-1.3s-2.4,1.1-2.4,3.1,1,3.1,2.4,3.1,1.8-.7,2-1.4c.2-.6.6-.9,1.1-.9.8,0,1.4.7.9,1.9-.5,1.2-1.8,2.3-4.1,2.3s-4.7-1.9-4.7-4.9Z"/><path class="cls-116" d="M504.7,330.1c0-2.9,1.9-4.9,4.6-4.9s4.1,2.1,4.4,3.9c.2,1.3-.3,1.5-1.2,1.5h-5.4c0,1.5.9,2.6,2.3,2.6s1.5-.4,1.8-1.1c.2-.5.6-.8,1.1-.8.8,0,1.4.8.8,1.9-.5.9-1.8,1.8-3.7,1.8-2.8,0-4.7-1.8-4.7-5ZM509.3,327c-1.2,0-2.1.9-2.3,2.1h4.4c0-1.2-.8-2.1-2.1-2.1Z"/><g class="cls-124"><path class="cls-26" d="M296,167.5c-.5-1,.1-1.8.8-1.8s.9.3,1.2.9c.3.7.9,1.1,1.8,1.1s1.7-.5,1.7-1.2-.5-.9-1.5-1.1l-1.1-.2c-1.9-.4-3-1.3-3-2.8s1.5-2.8,3.8-2.8,3,.6,3.6,1.6c.6,1-.1,1.8-.8,1.8s-.9-.3-1.2-.8c-.3-.6-.8-.9-1.6-.9s-1.5.3-1.5,1,.4.8,1.5,1.1l1.1.2c1.8.4,3,1.2,3,2.8s-1.5,3-3.9,3-3.3-.8-3.9-1.9Z"/><path class="cls-26" d="M305.3,157.3c0-.8.6-1.4,1.4-1.4s1.4.6,1.4,1.4-.6,1.4-1.4,1.4-1.4-.6-1.4-1.4ZM305.6,168.1v-7.1c0-.8.4-1.3,1.2-1.3s1.2.5,1.2,1.3v7.1c0,.8-.4,1.3-1.2,1.3s-1.2-.5-1.2-1.3Z"/><path class="cls-26" d="M309.5,167.9c0-.4.2-.7.5-1l4.3-4.4c.3-.3.5-.5.8-.7h-4.3c-.7,0-1.1-.3-1.1-.9s.4-.9,1.1-.9h5.4c.9,0,1.5.5,1.5,1.3s-.2.8-.5,1.1l-4.3,4.4c-.2.2-.5.5-.7.7h4.6c.7,0,1.1.3,1.1.9s-.4.9-1.1.9h-5.9c-.9,0-1.5-.5-1.5-1.2Z"/><path class="cls-26" d="M318.8,164.5c0-2.9,1.9-4.9,4.6-4.9s4.1,2.1,4.4,3.9c.2,1.3-.3,1.5-1.2,1.5h-5.4c0,1.5.9,2.6,2.3,2.6s1.5-.4,1.8-1.1c.2-.5.6-.8,1.1-.8.8,0,1.4.8.8,1.9-.5.9-1.8,1.8-3.7,1.8-2.8,0-4.7-1.8-4.7-5ZM323.4,161.3c-1.2,0-2.1.9-2.3,2.1h4.4c0-1.2-.8-2.1-2.1-2.1Z"/></g><path class="cls-116" d="M296,167.5c-.5-1,.1-1.8.8-1.8s.9.3,1.2.9c.3.7.9,1.1,1.8,1.1s1.7-.5,1.7-1.2-.5-.9-1.5-1.1l-1.1-.2c-1.9-.4-3-1.3-3-2.8s1.5-2.8,3.8-2.8,3,.6,3.6,1.6c.6,1-.1,1.8-.8,1.8s-.9-.3-1.2-.8c-.3-.6-.8-.9-1.6-.9s-1.5.3-1.5,1,.4.8,1.5,1.1l1.1.2c1.8.4,3,1.2,3,2.8s-1.5,3-3.9,3-3.3-.8-3.9-1.9Z"/><path class="cls-116" d="M305.3,157.3c0-.8.6-1.4,1.4-1.4s1.4.6,1.4,1.4-.6,1.4-1.4,1.4-1.4-.6-1.4-1.4ZM305.6,168.1v-7.1c0-.8.4-1.3,1.2-1.3s1.2.5,1.2,1.3v7.1c0,.8-.4,1.3-1.2,1.3s-1.2-.5-1.2-1.3Z"/><path class="cls-116" d="M309.5,167.9c0-.4.2-.7.5-1l4.3-4.4c.3-.3.5-.5.8-.7h-4.3c-.7,0-1.1-.3-1.1-.9s.4-.9,1.1-.9h5.4c.9,0,1.5.5,1.5,1.3s-.2.8-.5,1.1l-4.3,4.4c-.2.2-.5.5-.7.7h4.6c.7,0,1.1.3,1.1.9s-.4.9-1.1.9h-5.9c-.9,0-1.5-.5-1.5-1.2Z"/><path class="cls-116" d="M318.8,164.5c0-2.9,1.9-4.9,4.6-4.9s4.1,2.1,4.4,3.9c.2,1.3-.3,1.5-1.2,1.5h-5.4c0,1.5.9,2.6,2.3,2.6s1.5-.4,1.8-1.1c.2-.5.6-.8,1.1-.8.8,0,1.4.8.8,1.9-.5.9-1.8,1.8-3.7,1.8-2.8,0-4.7-1.8-4.7-5ZM323.4,161.3c-1.2,0-2.1.9-2.3,2.1h4.4c0-1.2-.8-2.1-2.1-2.1Z"/><path class="cls-116" d="M475.6,168.1v-7.1c0-.9.4-1.3,1.1-1.3s1.1.5,1.1,1.2,0,.3,0,.4c.5-.8,1.3-1.6,2.7-1.6s2.1.9,2.4,1.7c.5-.9,1.6-1.7,3-1.7s3.2,1.5,3.2,3.7v4.7c0,.8-.4,1.3-1.2,1.3s-1.2-.5-1.2-1.3v-4.4c0-1.3-.5-2.2-1.5-2.2s-1.8.9-1.8,2.3v4.3c0,.8-.4,1.3-1.2,1.3s-1.2-.5-1.2-1.3v-4.4c0-1.3-.5-2.2-1.5-2.2s-1.7.9-1.7,2.3v4.3c0,.8-.4,1.3-1.2,1.3-.7,0-1.2-.5-1.2-1.3Z"/><path class="cls-116" d="M491,157.3c0-.8.6-1.4,1.4-1.4s1.4.6,1.4,1.4-.6,1.4-1.4,1.4-1.4-.6-1.4-1.4ZM491.3,168.1v-7.1c0-.8.4-1.3,1.2-1.3s1.2.5,1.2,1.3v7.1c0,.8-.4,1.3-1.2,1.3s-1.2-.5-1.2-1.3Z"/><path class="cls-116" d="M495.5,167.6l2.4-3.2-2.1-2.9c-.7-1.1,0-1.8.8-1.8s.7.2.9.6l1,1.6c.2.3.4.6.5.9.2-.4.4-.6.6-.9l1.1-1.6c.3-.4.6-.6.9-.6.6,0,1.5.7.7,1.8l-2.2,3,2.2,3.2c.8,1.1,0,1.8-.8,1.8s-.7-.2-.9-.6l-1.2-1.9-.5-.9c-.2.3-.4.6-.5.9l-1.3,1.9c-.3.4-.6.6-.9.6-.6,0-1.5-.8-.7-1.8Z"/><path class="cls-116" d="M282.2,609.3c0-3.1,2.1-4.9,4.8-4.9s3.4,1.1,3.9,2.1c.6,1.2,0,2-.8,2s-.9-.3-1.2-.9c-.2-.8-.8-1.3-1.9-1.3s-2.4,1.1-2.4,3.1,1,3.1,2.4,3.1,1.8-.7,2-1.4c.2-.6.6-.9,1.1-.9.8,0,1.4.7.9,1.9-.5,1.2-1.8,2.3-4.1,2.3s-4.7-1.9-4.7-4.9Z"/><path class="cls-116" d="M292.5,612.8v-11.1c0-.8.4-1.3,1.2-1.3s1.2.5,1.2,1.3v3.4c0,.3,0,.5,0,.9.5-.9,1.4-1.6,2.8-1.6s3.2,1.4,3.2,3.7v4.8c0,.8-.4,1.3-1.2,1.3s-1.2-.5-1.2-1.3v-4.4c0-1.4-.7-2.2-1.7-2.2s-2,1-2,2.3v4.3c0,.8-.4,1.3-1.2,1.3s-1.2-.5-1.2-1.3Z"/><path class="cls-116" d="M302.2,611.4c0-2.1,1.6-2.8,3.6-3.1l1.3-.2c.8,0,1-.4,1-.8,0-.6-.5-1.2-1.5-1.2s-1.4.3-1.7,1c-.2.5-.6.8-1.2.8-.9,0-1.4-.9-.8-1.9.7-1.1,2-1.7,3.5-1.7,2.8,0,3.9,1.5,3.9,4.1v4.4c0,.8-.4,1.2-1.1,1.2s-1.1-.4-1.1-1,0-.4.1-.5c-.5.9-1.4,1.6-3,1.6s-3.2-1.1-3.2-2.9ZM308.2,610.3v-1c-.2.2-.5.3-1.1.4l-.8.2c-1.1.2-1.8.6-1.8,1.4s.6,1.3,1.5,1.3c1.2,0,2.2-.9,2.2-2.2Z"/><path class="cls-116" d="M312.3,612.8v-7.1c0-.8.4-1.3,1.1-1.3s1.1.5,1.1,1.2,0,.3,0,.4c.5-.9,1.4-1.6,2.8-1.6s3.2,1.4,3.2,3.7v4.8c0,.8-.4,1.3-1.2,1.3s-1.2-.5-1.2-1.3v-4.4c0-1.4-.7-2.2-1.7-2.2s-2,1-2,2.3v4.3c0,.8-.4,1.3-1.2,1.3s-1.2-.5-1.2-1.3Z"/><path class="cls-116" d="M322,609.3c0-3.1,2.1-4.9,4.8-4.9s3.4,1.1,3.9,2.1c.6,1.2,0,2-.8,2s-.9-.3-1.2-.9c-.2-.8-.8-1.3-1.9-1.3s-2.4,1.1-2.4,3.1,1,3.1,2.4,3.1,1.8-.7,2-1.4c.2-.6.6-.9,1.1-.9.8,0,1.4.7.9,1.9-.5,1.2-1.8,2.3-4.1,2.3s-4.7-1.9-4.7-4.9Z"/><path class="cls-116" d="M331.8,609.3c0-2.9,1.9-4.9,4.6-4.9s4.1,2.1,4.4,3.9c.2,1.3-.3,1.5-1.2,1.5h-5.4c0,1.5.9,2.6,2.3,2.6s1.5-.4,1.8-1.1c.2-.5.6-.8,1.1-.8.8,0,1.4.8.8,1.9-.5.9-1.8,1.8-3.7,1.8-2.8,0-4.7-1.8-4.7-5ZM336.4,606.1c-1.2,0-2.1.9-2.3,2.1h4.4c0-1.2-.8-2.1-2.1-2.1Z"/><path class="cls-116" d="M462.8,762.1c0,0,0,.2,0,.4,0,.7-.4,1.2-1.1,1.2s-1.2-.5-1.2-1.3v-11.1c0-.8.4-1.3,1.2-1.3s1.2.5,1.2,1.3v3.4c0,.3,0,.6,0,.9.6-1,1.5-1.6,2.9-1.6,2.2,0,4.2,1.9,4.2,4.9s-1.8,4.9-4.1,4.9-2.5-.7-3-1.6ZM467.6,758.8c0-1.8-1-3.1-2.4-3.1s-2.4,1.3-2.4,3.1,1,3.1,2.4,3.1,2.4-1.3,2.4-3.1Z"/><path class="cls-116" d="M472.8,765.8l.9-2.5-3-7.6c-.5-1.3.4-1.8,1.1-1.8s.9.3,1.1.9l1.7,5.3c.1.3.2.7.3,1.1,0-.4.2-.8.3-1.1l1.7-5.3c.2-.6.6-.9,1-.9s1.5.4,1.1,1.7l-4.1,11c-.2.6-.6.9-1.1.9s-1.6-.4-1.1-1.7Z"/><path class="cls-116" d="M480.5,766.2v-10.9c0-.8.4-1.3,1.2-1.3s1.1.4,1.1,1.2,0,.3,0,.4c.6-1,1.6-1.6,3-1.6,2.4,0,4,2,4,5s-1.8,4.9-4.1,4.9-2.3-.7-2.9-1.6c0,.4,0,.6,0,.9v3.2c0,.8-.4,1.3-1.2,1.3s-1.2-.5-1.2-1.3ZM487.4,758.8c0-1.8-.9-3.1-2.4-3.1s-2.4,1.2-2.4,3.1,1,3.1,2.4,3.1,2.4-1.3,2.4-3.1Z"/><path class="cls-116" d="M490.9,760.8c0-2.1,1.6-2.8,3.6-3.1l1.3-.2c.8,0,1-.4,1-.8,0-.6-.5-1.2-1.5-1.2s-1.4.3-1.7,1c-.2.5-.6.8-1.2.8-.9,0-1.4-.9-.8-1.9.7-1.1,2-1.7,3.5-1.7,2.8,0,3.9,1.5,3.9,4.1v4.4c0,.8-.4,1.2-1.1,1.2s-1.1-.4-1.1-1,0-.4.1-.5c-.5.9-1.4,1.6-3,1.6s-3.2-1.1-3.2-2.9ZM496.9,759.8v-1c-.2.2-.5.3-1.1.4l-.8.2c-1.1.2-1.8.6-1.8,1.4s.6,1.3,1.5,1.3c1.2,0,2.2-.9,2.2-2.2Z"/><path class="cls-116" d="M500.9,761.8c-.5-1,.1-1.8.8-1.8s.9.3,1.2.9c.3.7.9,1.1,1.8,1.1s1.7-.5,1.7-1.2-.5-.9-1.5-1.1l-1.1-.2c-1.9-.4-3-1.3-3-2.8s1.5-2.8,3.8-2.8,3,.6,3.6,1.6c.6,1-.1,1.8-.8,1.8s-.9-.3-1.2-.8c-.3-.6-.8-.9-1.6-.9s-1.5.3-1.5,1,.4.8,1.5,1.1l1.1.2c1.8.4,3,1.2,3,2.8s-1.5,3-3.9,3-3.3-.8-3.9-1.9Z"/><path class="cls-116" d="M510.1,761.8c-.5-1,.1-1.8.8-1.8s.9.3,1.2.9c.3.7.9,1.1,1.8,1.1s1.7-.5,1.7-1.2-.5-.9-1.5-1.1l-1.1-.2c-1.9-.4-3-1.3-3-2.8s1.5-2.8,3.8-2.8,3,.6,3.6,1.6c.6,1-.1,1.8-.8,1.8s-.9-.3-1.2-.8c-.3-.6-.8-.9-1.6-.9s-1.5.3-1.5,1,.4.8,1.5,1.1l1.1.2c1.8.4,3,1.2,3,2.8s-1.5,3-3.9,3-3.3-.8-3.9-1.9Z"/><path class="cls-116" d="M464.5,543.3l2-9.5c.2-.8.5-1.2,1.2-1.2s.8.3.8.7,0,.3,0,.4c.5-.6,1.3-1.2,2.5-1.2,1.8,0,3,1.6,3,3.6s-1.8,5-4.2,5-2.1-.7-2.6-1.5c0,.4-.1.7-.2,1l-.6,2.8c-.1.6-.5,1-1.1,1s-1-.4-.9-1.2ZM472,536.2c0-1.2-.6-2.1-1.7-2.1-1.7,0-2.6,1.8-2.6,3.3s.7,2.1,1.7,2.1c1.6,0,2.6-1.8,2.6-3.4Z"/><path class="cls-116" d="M474.9,539.9l1.3-6.1c.2-.8.5-1.2,1.2-1.2s.9.3.9.8,0,.5-.2.8c.5-.8,1.4-1.7,2.3-1.7s.4,0,.5.2c.2.1.3.4.3.7s-.2.7-.5.9c-.1,0-.3.1-.6.1-1.2,0-2.2.6-2.6,2.5l-.6,3c-.1.6-.5,1-1.1,1s-1-.4-.9-1.2Z"/><path class="cls-116" d="M480.9,537.5c0-2.7,1.8-5,4.6-5s3.4,1.4,3.4,3.4c0,1.2-.4,1.4-1.2,1.4h-4.8c0,1.2.5,2.2,1.7,2.2s1.3-.3,1.7-.8c.2-.4.6-.7,1-.7.8,0,1.1.9.6,1.7-.7.9-1.9,1.4-3.3,1.4-2.1,0-3.7-1.4-3.7-3.6ZM485.5,534.1c-1.1,0-2,.8-2.3,1.8h3.8c.2-1.2-.4-1.8-1.5-1.8Z"/><path class="cls-116" d="M489.8,539.3c-.5-1.1.3-1.6.8-1.6s.8.2,1.1.9c.3.8.9,1.1,1.6,1.1s1.5-.4,1.5-1-.5-.7-1.2-1l-.9-.3c-1.3-.4-2.1-1.2-2.1-2.3s1.2-2.5,3.3-2.5,2.6.6,3.2,1.7c.5,1-.2,1.6-.8,1.6s-.8-.2-1-.7c-.2-.7-.8-1-1.5-1s-1.3.4-1.3.9.2.6,1,.9l1.1.3c1.2.4,2.2,1,2.2,2.3s-1.4,2.7-3.5,2.7-2.8-.6-3.4-1.8Z"/><path class="cls-116" d="M498.2,537.5c0-2.7,1.8-5,4.6-5s3.4,1.4,3.4,3.4c0,1.2-.4,1.4-1.2,1.4h-4.8c0,1.2.5,2.2,1.7,2.2s1.3-.3,1.7-.8c.2-.4.6-.7,1-.7.8,0,1.1.9.6,1.7-.7.9-1.9,1.4-3.3,1.4-2.1,0-3.7-1.4-3.7-3.6ZM502.8,534.1c-1.1,0-2,.8-2.3,1.8h3.8c.2-1.2-.4-1.8-1.5-1.8Z"/><path class="cls-116" d="M508.2,537.9l.8-3.5h-.9c-.6,0-.9-.3-.9-.8s.3-.8.9-.8h1.2l.4-2.1c.1-.6.5-1,1.1-1s1,.4.9,1.2l-.4,2h1c.6,0,.9.3.9.8s-.3.8-.9.8h-1.4l-.8,3.6c-.2.8.1,1.3.8,1.3s.2,0,.3,0c.6,0,.9.3.9.7s-.4.9-1.3,1c-.1,0-.3,0-.5,0-1.9,0-2.7-1.3-2.3-3.1Z"/><g class="cls-127"><path class="cls-34" d="M312.3,131c16.6,0,30.1-13.5,30.1-30.1s-13.5-30.1-30.1-30.1-30.1,13.5-30.1,30.1,13.5,30.1,30.1,30.1"/><path class="cls-34" d="M312.3,298.3c16.6,0,30.1-13.5,30.1-30.1s-13.5-30.1-30.1-30.1-30.1,13.5-30.1,30.1,13.5,30.1,30.1,30.1"/><path class="cls-34" d="M312.3,562.6c16.6,0,30.1-13.5,30.1-30.1s-13.5-30.1-30.1-30.1-30.1,13.5-30.1,30.1,13.5,30.1,30.1,30.1"/><path class="cls-34" d="M488.9,131c16.6,0,30.1-13.5,30.1-30.1s-13.5-30.1-30.1-30.1-30.1,13.5-30.1,30.1,13.5,30.1,30.1,30.1"/><path class="cls-34" d="M488.9,298.3c16.6,0,30.1-13.5,30.1-30.1s-13.5-30.1-30.1-30.1-30.1,13.5-30.1,30.1,13.5,30.1,30.1,30.1"/><path class="cls-33" d="M312.3,583.4c28.3,0,51.3-23,51.3-51.3s-23-51.3-51.3-51.3-51.3,23-51.3,51.3,23,51.3,51.3,51.3"/></g><rect class="cls-130" x="310.7" y="480.7" width="3.2" height="51.3"/><rect class="cls-9" x="310.7" y="480.7" width="3.2" height="51.3"/><g class="cls-126"><path class="cls-33" d="M311.8,319.1c28.3,0,51.3-23,51.3-51.3s-23-51.3-51.3-51.3-51.3,23-51.3,51.3,23,51.3,51.3,51.3"/><path class="cls-33" d="M311.2,152.1c28.3,0,51.3-23,51.3-51.3s-23-51.3-51.3-51.3-51.3,23-51.3,51.3,23,51.3,51.3,51.3"/><path class="cls-33" d="M489.3,319.1c28.3,0,51.3-23,51.3-51.3s-23-51.3-51.3-51.3-51.3,23-51.3,51.3,23,51.3,51.3,51.3"/><path class="cls-33" d="M488.7,152.1c28.3,0,51.3-23,51.3-51.3s-23-51.3-51.3-51.3-51.3,23-51.3,51.3,23,51.3,51.3,51.3"/><path class="cls-130" d="M483.1,46.1v56.6c0,.6.5,1.1,1.1,1.1h9.1c.6,0,1.1-.5,1.1-1.1v-56.6c0-.6-.5-1.1-1.1-1.1h-9.1c-.6,0-1.1.5-1.1,1.1"/><path class="cls-8" d="M484.2,45.1h9.1c.6,0,1.1.5,1.1,1.1v56.6c0,.6-.5,1.1-1.1,1.1h-9.1c-.6,0-1.1-.5-1.1-1.1v-56.6c0-.6.5-1.1,1.1-1.1Z"/><path class="cls-116" d="M311.7,708.6c7.4,0,13.4-6,13.4-13.4s-6-13.4-13.4-13.4-13.4,6-13.4,13.4,6,13.4,13.4,13.4"/><path class="cls-130" d="M312.3,427.8c20.3,0,36.8-16.5,36.8-36.8s-16.5-36.8-36.8-36.8-36.8,16.5-36.8,36.8,16.5,36.8,36.8,36.8"/><path class="cls-6" d="M312.3,427.8c20.3,0,36.8-16.5,36.8-36.8s-16.5-36.8-36.8-36.8-36.8,16.5-36.8,36.8,16.5,36.8,36.8,36.8Z"/><path class="cls-130" d="M489.3,427.8c20.3,0,36.8-16.5,36.8-36.8s-16.5-36.8-36.8-36.8-36.8,16.5-36.8,36.8,16.5,36.8,36.8,36.8"/><path class="cls-6" d="M489.3,427.8c20.3,0,36.8-16.5,36.8-36.8s-16.5-36.8-36.8-36.8-36.8,16.5-36.8,36.8,16.5,36.8,36.8,36.8Z"/><path class="cls-130" d="M489.3,588.5c11.1,0,20.1-9,20.1-20.1s-9-20.1-20.1-20.1-20.1,9-20.1,20.1,9,20.1,20.1,20.1"/><path class="cls-3" d="M489.3,588.5c11.1,0,20.1-9,20.1-20.1s-9-20.1-20.1-20.1-20.1,9-20.1,20.1,9,20.1,20.1,20.1Z"/><path class="cls-130" d="M344.6,739.5c5.5,0,10-4.5,10-10s-4.5-10-10-10-10,4.5-10,10,4.5,10,10,10"/><circle class="cls-5" cx="344.6" cy="729.5" r="10" transform="translate(-185.6 121.4) rotate(-15.8)"/><path class="cls-130" d="M344.6,672.8c5.5,0,10-4.5,10-10s-4.5-10-10-10-10,4.5-10,10,4.5,10,10,10"/><circle class="cls-5" cx="344.6" cy="662.8" r="10" transform="translate(-143.1 96.9) rotate(-13.3)"/><path class="cls-130" d="M311.8,427.8c20.3,0,36.8-16.5,36.8-36.8s-16.5-36.8-36.8-36.8-36.8,16.5-36.8,36.8,16.5,36.8,36.8,36.8"/><path class="cls-6" d="M311.8,427.8c20.3,0,36.8-16.5,36.8-36.8s-16.5-36.8-36.8-36.8-36.8,16.5-36.8,36.8,16.5,36.8,36.8,36.8Z"/><path class="cls-130" d="M311.8,412.8c12,0,21.7-9.7,21.7-21.7s-9.7-21.7-21.7-21.7-21.7,9.7-21.7,21.7,9.7,21.7,21.7,21.7"/><path class="cls-6" d="M311.8,412.8c12,0,21.7-9.7,21.7-21.7s-9.7-21.7-21.7-21.7-21.7,9.7-21.7,21.7,9.7,21.7,21.7,21.7Z"/><path class="cls-130" d="M306.1,388.8v4.2c.2,2.7,2.7,4.9,5.6,4.9s5.4-2.2,5.6-4.9v-4.2"/><path class="cls-18" d="M306.1,388.8v4.2c.2,2.7,2.7,4.9,5.6,4.9s5.4-2.2,5.6-4.9v-4.2"/><path class="cls-130" d="M319,384.4c.4-3,4.1-22.7,4.1-29.1s-5.1-11.7-11.3-11.7-11.3,5.2-11.3,11.7,3.3,25.5,4.1,29.1c1.9,9.1,13.4,7.9,14.4,0"/><path class="cls-20" d="M319,384.4c.4-3,4.1-22.7,4.1-29.1s-5.1-11.7-11.3-11.7-11.3,5.2-11.3,11.7,3.3,25.5,4.1,29.1c1.9,9.1,13.4,7.9,14.4,0Z"/><path class="cls-130" d="M489.6,427.8c20.3,0,36.8-16.5,36.8-36.8s-16.5-36.8-36.8-36.8-36.8,16.5-36.8,36.8,16.5,36.8,36.8,36.8"/><path class="cls-6" d="M489.6,427.8c20.3,0,36.8-16.5,36.8-36.8s-16.5-36.8-36.8-36.8-36.8,16.5-36.8,36.8,16.5,36.8,36.8,36.8Z"/><path class="cls-130" d="M489.6,412.8c12,0,21.7-9.7,21.7-21.7s-9.7-21.7-21.7-21.7-21.7,9.7-21.7,21.7,9.7,21.7,21.7,21.7"/><path class="cls-6" d="M489.6,412.8c12,0,21.7-9.7,21.7-21.7s-9.7-21.7-21.7-21.7-21.7,9.7-21.7,21.7,9.7,21.7,21.7,21.7Z"/><path class="cls-130" d="M483.9,388.8v4.2c.2,2.7,2.7,4.9,5.6,4.9s5.4-2.2,5.6-4.9v-4.2"/><path class="cls-18" d="M483.9,388.8v4.2c.2,2.7,2.7,4.9,5.6,4.9s5.4-2.2,5.6-4.9v-4.2"/><path class="cls-130" d="M496.8,384.4c.4-3,4.1-22.7,4.1-29.1s-5.1-11.7-11.3-11.7-11.3,5.2-11.3,11.7,3.3,25.5,4.1,29.1c1.9,9.1,13.4,7.9,14.4,0"/><path class="cls-20" d="M496.8,384.4c.4-3,4.1-22.7,4.1-29.1s-5.1-11.7-11.3-11.7-11.3,5.2-11.3,11.7,3.3,25.5,4.1,29.1c1.9,9.1,13.4,7.9,14.4,0Z"/><path class="cls-130" d="M305.6,46.1v56.6c0,.6.5,1.1,1.1,1.1h9.1c.6,0,1.1-.5,1.1-1.1v-56.6c0-.6-.5-1.1-1.1-1.1h-9.1c-.6,0-1.1.5-1.1,1.1"/><path class="cls-8" d="M306.7,45.1h9.1c.6,0,1.1.5,1.1,1.1v56.6c0,.6-.5,1.1-1.1,1.1h-9.1c-.6,0-1.1-.5-1.1-1.1v-56.6c0-.6.5-1.1,1.1-1.1Z"/><path class="cls-130" d="M484,214.2v56.6c0,.6.5,1.1,1.1,1.1h9.1c.6,0,1.1-.5,1.1-1.1v-56.6c0-.6-.5-1.1-1.1-1.1h-9.1c-.6,0-1.1.5-1.1,1.1"/><path class="cls-8" d="M485,213.2h9.1c.6,0,1.1.5,1.1,1.1v56.6c0,.6-.5,1.1-1.1,1.1h-9.1c-.6,0-1.1-.5-1.1-1.1v-56.6c0-.6.5-1.1,1.1-1.1Z"/><path class="cls-130" d="M305.6,214.2v56.6c0,.6.5,1.1,1.1,1.1h9.1c.6,0,1.1-.5,1.1-1.1v-56.6c0-.6-.5-1.1-1.1-1.1h-9.1c-.6,0-1.1.5-1.1,1.1"/><path class="cls-8" d="M306.7,213.2h9.1c.6,0,1.1.5,1.1,1.1v56.6c0,.6-.5,1.1-1.1,1.1h-9.1c-.6,0-1.1-.5-1.1-1.1v-56.6c0-.6.5-1.1,1.1-1.1Z"/></g><polygon class="cls-130" points="489.6 628.6 443.3 655.3 443.2 708.7 489.5 735.3 535.8 708.5 535.9 655.2 489.6 628.6"/><polygon class="cls-6" points="489.6 628.6 443.3 655.3 443.2 708.7 489.5 735.3 535.8 708.5 535.9 655.2 489.6 628.6"/><g class="cls-118"><path class="cls-130" d="M452.8,653.9l.2,27.8c1.3,18.2,17.2,32.6,36.6,32.6s35.3-14.4,36.6-32.6l.2-27.8"/><path class="cls-20" d="M452.8,653.9l.2,27.8c1.3,18.2,17.2,32.6,36.6,32.6s35.3-14.4,36.6-32.6l.2-27.8"/><path class="cls-130" d="M489.6,690c20.3,0,36.8-15.8,36.8-35.3s-16.5-35.3-36.8-35.3-36.8,15.8-36.8,35.3,16.5,35.3,36.8,35.3"/><ellipse class="cls-6" cx="489.6" cy="654.6" rx="36.8" ry="35.3"/></g></g></svg>